<svg width="62" height="60" viewBox="0 0 62 60" fill="none" xmlns="http://www.w3.org/2000/svg">
<path fill-rule="evenodd" clip-rule="evenodd" d="M7.62598 16.875C7.62598 15.8395 8.47954 15 9.53246 15H51.4751C52.528 15 53.3816 15.8395 53.3816 16.875C53.3816 17.9105 52.528 18.75 51.4751 18.75H9.53246C8.47954 18.75 7.62598 17.9105 7.62598 16.875ZM7.62598 30C7.62598 28.9645 8.47954 28.125 9.53246 28.125H51.4751C52.528 28.125 53.3816 28.9645 53.3816 30C53.3816 31.0355 52.528 31.875 51.4751 31.875H9.53246C8.47954 31.875 7.62598 31.0355 7.62598 30ZM7.62598 43.125C7.62598 42.0895 8.47954 41.25 9.53246 41.25H51.4751C52.528 41.25 53.3816 42.0895 53.3816 43.125C53.3816 44.1605 52.528 45 51.4751 45H9.53246C8.47954 45 7.62598 44.1605 7.62598 43.125Z" fill="white"/>
</svg>
