<svg width="707" height="480" viewBox="0 0 707 480" fill="none" xmlns="http://www.w3.org/2000/svg">
<g filter="url(#filter0_d_738_1088)">
<g clip-path="url(#clip0_738_1088)">
<g filter="url(#filter1_b_738_1088)">
<rect x="68" y="63" width="571" height="291" fill="white" fill-opacity="0.51"/>
</g>
<g filter="url(#filter2_b_738_1088)">
<path d="M68 20C68 14.4772 72.4772 10 78 10H629C634.523 10 639 14.4772 639 20V63H68V20Z" fill="white" fill-opacity="0.78"/>
<g clip-path="url(#clip1_738_1088)">
<path d="M528.5 38.2646C528.857 38.2646 529.156 37.9658 529.156 37.6172V29.0923L529.106 27.8472L529.67 28.4365L530.924 29.7812C531.04 29.9141 531.214 29.9805 531.372 29.9805C531.721 29.9805 531.978 29.7314 531.978 29.3911C531.978 29.2168 531.912 29.084 531.787 28.9595L528.981 26.2534C528.815 26.0874 528.666 26.0293 528.5 26.0293C528.334 26.0293 528.185 26.0874 528.019 26.2534L525.213 28.9595C525.088 29.084 525.014 29.2168 525.014 29.3911C525.014 29.7314 525.271 29.9805 525.611 29.9805C525.777 29.9805 525.952 29.9141 526.068 29.7812L527.33 28.4365L527.894 27.8472L527.836 29.0923V37.6172C527.836 37.9658 528.143 38.2646 528.5 38.2646ZM523.735 44.7642H533.256C534.991 44.7642 535.863 43.9009 535.863 42.1909V33.9067C535.863 32.1968 534.991 31.3335 533.256 31.3335H530.94V32.6699H533.231C534.053 32.6699 534.526 33.1182 534.526 33.9814V42.1162C534.526 42.9795 534.053 43.4277 533.231 43.4277H523.752C522.922 43.4277 522.465 42.9795 522.465 42.1162V33.9814C522.465 33.1182 522.922 32.6699 523.752 32.6699H526.051V31.3335H523.735C522 31.3335 521.129 32.1968 521.129 33.9067V42.1909C521.129 43.9009 522 44.7642 523.735 44.7642Z" fill="#737373"/>
<path d="M569.5 43.0044C569.907 43.0044 570.247 42.6807 570.247 42.2822V36.7622H575.609C576.008 36.7622 576.348 36.4219 576.348 36.0151C576.348 35.6084 576.008 35.2764 575.609 35.2764H570.247V29.748C570.247 29.3496 569.907 29.0259 569.5 29.0259C569.093 29.0259 568.761 29.3496 568.761 29.748V35.2764H563.391C562.992 35.2764 562.652 35.6084 562.652 36.0151C562.652 36.4219 562.992 36.7622 563.391 36.7622H568.761V42.2822C568.761 42.6807 569.093 43.0044 569.5 43.0044Z" fill="#737373"/>
<path d="M604.324 40.8711H605.744V42.1411C605.744 43.8511 606.607 44.7144 608.35 44.7144H616.684C618.411 44.7144 619.282 43.8511 619.282 42.1411V33.7407C619.282 32.0308 618.411 31.1675 616.684 31.1675H615.256V29.8975C615.256 28.1875 614.385 27.3242 612.658 27.3242H604.324C602.581 27.3242 601.718 28.1875 601.718 29.8975V38.2979C601.718 40.0078 602.581 40.8711 604.324 40.8711ZM604.341 39.5347C603.511 39.5347 603.054 39.0864 603.054 38.2231V29.9722C603.054 29.1089 603.511 28.6606 604.341 28.6606H612.633C613.455 28.6606 613.92 29.1089 613.92 29.9722V31.1675H608.35C606.607 31.1675 605.744 32.0225 605.744 33.7407V39.5347H604.341ZM608.367 43.3779C607.545 43.3779 607.08 42.9297 607.08 42.0664V33.8154C607.08 32.9521 607.545 32.5039 608.367 32.5039H616.659C617.481 32.5039 617.946 32.9521 617.946 33.8154V42.0664C617.946 42.9297 617.481 43.3779 616.659 43.3779H608.367Z" fill="#737373"/>
</g>
<g clip-path="url(#clip2_738_1088)">
<path d="M221.264 42.9878L214.682 36.563C214.524 36.4053 214.441 36.2144 214.441 36.0068C214.441 35.791 214.532 35.5835 214.69 35.4507L221.264 29.0176C221.405 28.8765 221.588 28.7935 221.804 28.7935C222.235 28.7935 222.559 29.1255 222.559 29.5571C222.559 29.7563 222.476 29.9556 222.343 30.0967L216.3 36.0068L222.343 41.917C222.476 42.0581 222.559 42.249 222.559 42.4565C222.559 42.8882 222.235 43.2119 221.804 43.2119C221.588 43.2119 221.405 43.1289 221.264 42.9878Z" fill="#737373"/>
<path d="M248.196 43.2202C248.412 43.2202 248.595 43.1372 248.736 42.9961L255.318 36.563C255.476 36.4053 255.559 36.2144 255.559 36.0068C255.559 35.791 255.476 35.5918 255.318 35.4507L248.744 29.0259C248.595 28.8765 248.412 28.7935 248.196 28.7935C247.765 28.7935 247.441 29.1255 247.441 29.5571C247.441 29.7563 247.524 29.9556 247.657 30.0967L253.7 36.0068L247.657 41.917C247.524 42.0581 247.441 42.249 247.441 42.4565C247.441 42.8882 247.765 43.2202 248.196 43.2202Z" fill="#BFBFBF"/>
</g>
<path d="M169.32 43.6602H183.68C185.423 43.6602 186.287 42.7969 186.287 41.0869V30.9517C186.287 29.2417 185.423 28.3784 183.68 28.3784H169.32C167.585 28.3784 166.713 29.2334 166.713 30.9517V41.0869C166.713 42.8052 167.585 43.6602 169.32 43.6602ZM169.336 42.3237C168.506 42.3237 168.05 41.8838 168.05 41.0205V31.0181C168.05 30.1548 168.506 29.7148 169.336 29.7148H173.039V42.3237H169.336ZM183.664 29.7148C184.485 29.7148 184.95 30.1548 184.95 31.0181V41.0205C184.95 41.8838 184.485 42.3237 183.664 42.3237H174.342V29.7148H183.664ZM171.437 32.7944C171.694 32.7944 171.91 32.5703 171.91 32.3296C171.91 32.0806 171.694 31.8647 171.437 31.8647H169.66C169.411 31.8647 169.187 32.0806 169.187 32.3296C169.187 32.5703 169.411 32.7944 169.66 32.7944H171.437ZM171.437 34.9443C171.694 34.9443 171.91 34.7202 171.91 34.4712C171.91 34.2222 171.694 34.0146 171.437 34.0146H169.66C169.411 34.0146 169.187 34.2222 169.187 34.4712C169.187 34.7202 169.411 34.9443 169.66 34.9443H171.437ZM171.437 37.0859C171.694 37.0859 171.91 36.8784 171.91 36.6294C171.91 36.3804 171.694 36.1646 171.437 36.1646H169.66C169.411 36.1646 169.187 36.3804 169.187 36.6294C169.187 36.8784 169.411 37.0859 169.66 37.0859H171.437Z" fill="#737373"/>
<g filter="url(#filter3_i_738_1088)">
<path fill-rule="evenodd" clip-rule="evenodd" d="M95 42C98.3137 42 101 39.3137 101 36C101 32.6863 98.3137 30 95 30C91.6863 30 89 32.6863 89 36C89 39.3137 91.6863 42 95 42Z" fill="#EE6A5F"/>
</g>
<path d="M100.75 36C100.75 39.1756 98.1756 41.75 95 41.75C91.8244 41.75 89.25 39.1756 89.25 36C89.25 32.8244 91.8244 30.25 95 30.25C98.1756 30.25 100.75 32.8244 100.75 36Z" stroke="#CE5347" stroke-width="0.5"/>
<g filter="url(#filter4_i_738_1088)">
<path fill-rule="evenodd" clip-rule="evenodd" d="M115 42C118.314 42 121 39.3137 121 36C121 32.6863 118.314 30 115 30C111.686 30 109 32.6863 109 36C109 39.3137 111.686 42 115 42Z" fill="#F5BD4F"/>
</g>
<path d="M120.75 36C120.75 39.1756 118.176 41.75 115 41.75C111.824 41.75 109.25 39.1756 109.25 36C109.25 32.8244 111.824 30.25 115 30.25C118.176 30.25 120.75 32.8244 120.75 36Z" stroke="#D6A243" stroke-width="0.5"/>
<g filter="url(#filter5_i_738_1088)">
<path fill-rule="evenodd" clip-rule="evenodd" d="M135 42C138.314 42 141 39.3137 141 36C141 32.6863 138.314 30 135 30C131.686 30 129 32.6863 129 36C129 39.3137 131.686 42 135 42Z" fill="#61C454"/>
</g>
<path d="M140.75 36C140.75 39.1756 138.176 41.75 135 41.75C131.824 41.75 129.25 39.1756 129.25 36C129.25 32.8244 131.824 30.25 135 30.25C138.176 30.25 140.75 32.8244 140.75 36Z" stroke="#58A942" stroke-width="0.5"/>
<g clip-path="url(#clip3_738_1088)">
<path d="M236.172 44.6147C236.305 44.6147 236.521 44.5649 236.728 44.4487C241.451 41.8008 243.07 40.6802 243.07 37.6504V31.3003C243.07 30.4287 242.696 30.1548 241.991 29.856C241.011 29.4492 237.849 28.312 236.869 27.9717C236.645 27.897 236.404 27.8472 236.172 27.8472C235.939 27.8472 235.699 27.9136 235.483 27.9717C234.503 28.2539 231.333 29.4575 230.353 29.856C229.656 30.1465 229.274 30.4287 229.274 31.3003V37.6504C229.274 40.6802 230.901 41.7925 235.616 44.4487C235.832 44.5649 236.039 44.6147 236.172 44.6147ZM236.504 29.2583C237.757 29.7563 240.189 30.6362 241.476 31.0762C241.7 31.1592 241.75 31.2754 241.75 31.5576V37.3433C241.75 39.9082 240.521 40.5806 236.687 42.9131C236.446 43.0625 236.313 43.104 236.18 43.1123V29.1836C236.263 29.1836 236.371 29.2085 236.504 29.2583Z" fill="#737373"/>
<rect x="261.672" y="22" width="184" height="28" rx="6" fill="black" fill-opacity="0.05"/>
<g clip-path="url(#clip4_738_1088)">
<path d="M325.383 41.7158H330.961C331.717 41.7158 332.086 41.3408 332.086 40.5205V36.2197C332.086 35.4814 331.781 35.1006 331.154 35.0361V33.5596C331.154 31.3506 329.707 30.2842 328.172 30.2842C326.637 30.2842 325.189 31.3506 325.189 33.5596V35.0654C324.615 35.1533 324.258 35.5283 324.258 36.2197V40.5205C324.258 41.3408 324.627 41.7158 325.383 41.7158ZM326.133 33.4365C326.133 31.9658 327.076 31.1865 328.172 31.1865C329.268 31.1865 330.211 31.9658 330.211 33.4365V35.0303L326.133 35.0361V33.4365Z" fill="#9E9E9E"/>
<path d="M342.558 32.961C344.755 32.961 346.354 34.625 346.354 36.861C346.354 39.097 344.755 40.761 342.558 40.761C340.348 40.761 338.749 39.097 338.749 36.861C338.749 34.625 340.348 32.961 342.558 32.961ZM342.558 34.144C341.076 34.144 340.062 35.314 340.062 36.861C340.062 38.408 341.076 39.578 342.558 39.578C344.027 39.578 345.041 38.408 345.041 36.861C345.041 35.314 344.027 34.144 342.558 34.144ZM354.941 38.057C354.538 39.669 353.173 40.761 351.444 40.761C349.234 40.761 347.622 39.097 347.622 36.861C347.622 34.625 349.221 32.961 351.418 32.961C353.173 32.961 354.551 34.092 354.915 35.639H353.55C353.251 34.755 352.471 34.144 351.418 34.144C349.936 34.144 348.935 35.314 348.935 36.861C348.935 38.408 349.936 39.578 351.418 39.578C352.471 39.578 353.277 38.954 353.576 38.057H354.941ZM359.87 40.761C357.699 40.761 356.139 39.097 356.139 36.861C356.139 34.625 357.699 32.961 359.87 32.961C362.041 32.961 363.588 34.625 363.588 36.861C363.588 37.03 363.588 37.225 363.562 37.407H357.478C357.621 38.681 358.544 39.63 359.87 39.63C360.884 39.63 361.677 39.162 361.95 38.551H363.315C362.912 39.838 361.573 40.761 359.87 40.761ZM362.275 36.315C362.119 35.015 361.209 34.092 359.87 34.092C358.531 34.092 357.621 35.028 357.478 36.315H362.275ZM368.526 40.761C366.42 40.761 364.847 39.084 364.847 36.861C364.847 34.638 366.42 32.961 368.526 32.961C369.878 32.961 370.788 33.611 371.165 34.248V33.143H372.504V40.579H371.165V39.474C370.788 40.111 369.878 40.761 368.526 40.761ZM368.643 39.578C370.151 39.578 371.191 38.408 371.191 36.861C371.191 35.314 370.151 34.144 368.643 34.144C367.148 34.144 366.16 35.314 366.16 36.861C366.16 38.408 367.148 39.578 368.643 39.578ZM374.554 33.143H375.893V34.274C376.205 33.728 377.05 32.961 378.415 32.961C380.17 32.961 381.405 34.222 381.405 36.224V40.579H380.066V36.458C380.066 34.95 379.338 34.131 378.129 34.131C376.829 34.131 375.893 35.353 375.893 36.731V40.579H374.554V33.143Z" fill="#4C4C4C"/>
</g>
<path d="M433.955 35.6152C434.102 35.6152 434.213 35.5684 434.295 35.4805L436.709 33.0547C436.814 32.9551 436.855 32.8379 436.855 32.7031C436.855 32.5742 436.803 32.4453 436.709 32.3516L434.295 29.9023C434.213 29.8086 434.096 29.7617 433.955 29.7617C433.691 29.7617 433.492 29.9727 433.492 30.2422C433.492 30.3652 433.539 30.4824 433.621 30.5762L435.186 32.1113C434.852 32.0527 434.512 32.0176 434.172 32.0176C431.301 32.0176 428.992 34.3203 428.992 37.1914C428.992 40.0684 431.301 42.377 434.172 42.377C437.043 42.377 439.346 40.0684 439.346 37.1914C439.346 36.9102 439.146 36.7051 438.859 36.7051C438.584 36.7051 438.402 36.9102 438.402 37.1914C438.402 39.5469 436.521 41.4336 434.172 41.4336C431.822 41.4336 429.936 39.5469 429.936 37.1914C429.936 34.8418 431.822 32.9609 434.172 32.9609C434.617 32.9609 435.027 32.9961 435.379 33.0723L433.627 34.8125C433.539 34.9062 433.492 35.0234 433.492 35.1465C433.492 35.416 433.691 35.6152 433.955 35.6152Z" fill="#797979"/>
</g>
</g>
</g>
<rect x="68" y="10" width="571" height="344" rx="10" stroke="url(#paint0_linear_738_1088)"/>
</g>
<path d="M173.016 129.32C171.309 129.32 169.805 128.989 168.504 128.328C167.203 127.645 166.2 126.685 165.496 125.448C164.792 124.211 164.44 122.771 164.44 121.128C164.44 119.507 164.792 118.088 165.496 116.872C166.2 115.635 167.203 114.685 168.504 114.024C169.805 113.341 171.309 113 173.016 113C174.616 113 176.003 113.224 177.176 113.672C178.349 114.12 179.277 114.781 179.96 115.656C180.131 115.891 180.216 116.115 180.216 116.328C180.216 116.648 180.056 116.936 179.736 117.192C179.587 117.32 179.395 117.384 179.16 117.384C178.797 117.384 178.456 117.224 178.136 116.904C177.005 115.645 175.299 115.016 173.016 115.016C171.032 115.016 169.496 115.549 168.408 116.616C167.341 117.661 166.808 119.165 166.808 121.128C166.808 123.069 167.352 124.584 168.44 125.672C169.528 126.76 171.053 127.304 173.016 127.304C174.104 127.304 175.107 127.144 176.024 126.824C176.941 126.483 177.699 126.003 178.296 125.384C178.659 125.021 179 124.84 179.32 124.84C179.512 124.84 179.725 124.925 179.96 125.096C180.259 125.352 180.408 125.629 180.408 125.928C180.408 126.205 180.291 126.44 180.056 126.632C179.011 127.571 177.923 128.253 176.792 128.68C175.661 129.107 174.403 129.32 173.016 129.32ZM185.237 129.32C184.874 129.32 184.586 129.213 184.373 129C184.181 128.765 184.085 128.445 184.085 128.04V105.992C184.085 105.587 184.181 105.277 184.373 105.064C184.586 104.829 184.874 104.712 185.237 104.712C185.599 104.712 185.887 104.829 186.101 105.064C186.314 105.277 186.421 105.587 186.421 105.992V116.168C187.21 115.123 188.159 114.333 189.269 113.8C190.399 113.267 191.626 113 192.949 113C194.975 113 196.533 113.565 197.621 114.696C198.73 115.827 199.285 117.448 199.285 119.56V128.04C199.285 128.445 199.178 128.765 198.965 129C198.751 129.213 198.463 129.32 198.101 129.32C197.717 129.32 197.429 129.213 197.237 129C197.045 128.765 196.949 128.445 196.949 128.04V119.56C196.949 116.531 195.519 115.016 192.661 115.016C190.783 115.016 189.269 115.571 188.117 116.68C186.986 117.789 186.421 119.261 186.421 121.096V128.04C186.421 128.424 186.314 128.733 186.101 128.968C185.909 129.203 185.621 129.32 185.237 129.32ZM211.114 129.32C209.258 129.32 207.669 128.947 206.346 128.2C205.024 127.453 204.021 126.461 203.338 125.224C202.677 123.965 202.346 122.611 202.346 121.16C202.346 119.709 202.677 118.365 203.338 117.128C204.021 115.869 205.024 114.867 206.346 114.12C207.669 113.373 209.258 113 211.114 113C212.97 113 214.549 113.373 215.85 114.12C217.173 114.867 218.165 115.869 218.826 117.128C219.509 118.365 219.85 119.709 219.85 121.16C219.85 122.611 219.509 123.965 218.826 125.224C218.165 126.461 217.173 127.453 215.85 128.2C214.549 128.947 212.97 129.32 211.114 129.32ZM211.114 127.304C213.034 127.304 214.57 126.76 215.722 125.672C216.896 124.584 217.482 123.08 217.482 121.16C217.482 119.24 216.896 117.736 215.722 116.648C214.57 115.56 213.034 115.016 211.114 115.016C209.173 115.016 207.616 115.56 206.442 116.648C205.29 117.736 204.714 119.24 204.714 121.16C204.714 123.08 205.29 124.584 206.442 125.672C207.616 126.76 209.173 127.304 211.114 127.304ZM230.677 129.32C228.821 129.32 227.231 128.947 225.909 128.2C224.586 127.453 223.583 126.461 222.901 125.224C222.239 123.965 221.909 122.611 221.909 121.16C221.909 119.709 222.239 118.365 222.901 117.128C223.583 115.869 224.586 114.867 225.909 114.12C227.231 113.373 228.821 113 230.677 113C232.533 113 234.111 113.373 235.413 114.12C236.735 114.867 237.727 115.869 238.389 117.128C239.071 118.365 239.413 119.709 239.413 121.16C239.413 122.611 239.071 123.965 238.389 125.224C237.727 126.461 236.735 127.453 235.413 128.2C234.111 128.947 232.533 129.32 230.677 129.32ZM230.677 127.304C232.597 127.304 234.133 126.76 235.285 125.672C236.458 124.584 237.045 123.08 237.045 121.16C237.045 119.24 236.458 117.736 235.285 116.648C234.133 115.56 232.597 115.016 230.677 115.016C228.735 115.016 227.178 115.56 226.005 116.648C224.853 117.736 224.277 119.24 224.277 121.16C224.277 123.08 224.853 124.584 226.005 125.672C227.178 126.76 228.735 127.304 230.677 127.304ZM249.9 129.32C248.406 129.32 246.998 129.043 245.676 128.488C244.353 127.912 243.308 127.123 242.54 126.12C242.39 125.907 242.316 125.693 242.316 125.48C242.316 125.267 242.369 125.085 242.476 124.936C242.604 124.765 242.764 124.637 242.956 124.552C243.126 124.488 243.265 124.456 243.372 124.456C243.564 124.456 243.724 124.509 243.852 124.616C244.001 124.701 244.172 124.851 244.364 125.064C245.75 126.536 247.596 127.272 249.9 127.272C251.009 127.272 251.905 127.08 252.588 126.696C253.27 126.312 253.612 125.779 253.612 125.096C253.612 124.605 253.473 124.211 253.196 123.912C252.94 123.592 252.492 123.304 251.852 123.048C251.233 122.771 250.209 122.387 248.78 121.896C247.393 121.427 246.305 120.979 245.516 120.552C244.726 120.125 244.14 119.645 243.756 119.112C243.372 118.557 243.18 117.885 243.18 117.096C243.18 115.859 243.713 114.867 244.78 114.12C245.868 113.373 247.308 113 249.1 113C250.422 113 251.649 113.235 252.78 113.704C253.91 114.152 254.764 114.76 255.34 115.528C255.51 115.763 255.596 115.987 255.596 116.2C255.596 116.52 255.425 116.776 255.084 116.968C254.87 117.096 254.657 117.16 254.444 117.16C254.081 117.16 253.74 117 253.42 116.68C252.865 116.125 252.257 115.72 251.596 115.464C250.934 115.187 250.092 115.048 249.068 115.048C247.937 115.048 247.073 115.229 246.476 115.592C245.878 115.955 245.58 116.467 245.58 117.128C245.58 117.619 245.697 118.013 245.932 118.312C246.188 118.589 246.582 118.845 247.116 119.08C247.67 119.293 248.63 119.624 249.996 120.072C251.532 120.584 252.716 121.075 253.548 121.544C254.401 121.992 255.009 122.493 255.372 123.048C255.756 123.603 255.948 124.285 255.948 125.096C255.948 126.376 255.382 127.4 254.252 128.168C253.142 128.936 251.692 129.32 249.9 129.32ZM267.455 129.32C264.682 129.32 262.538 128.605 261.023 127.176C259.508 125.747 258.751 123.72 258.751 121.096C258.751 118.579 259.519 116.605 261.055 115.176C262.591 113.725 264.692 113 267.359 113C269.002 113 270.463 113.267 271.743 113.8C273.023 114.312 274.015 115.048 274.719 116.008C275.444 116.947 275.807 118.024 275.807 119.24C275.807 120.136 275.551 120.829 275.039 121.32C274.548 121.811 273.866 122.056 272.991 122.056H261.151C261.151 123.699 261.706 124.989 262.815 125.928C263.924 126.845 265.471 127.304 267.455 127.304C268.671 127.304 269.716 127.176 270.591 126.92C271.466 126.643 272.287 126.205 273.055 125.608C273.46 125.267 273.791 125.096 274.047 125.096C274.239 125.096 274.42 125.181 274.591 125.352C274.89 125.608 275.039 125.875 275.039 126.152C275.039 126.365 274.911 126.6 274.655 126.856C273.78 127.688 272.756 128.307 271.583 128.712C270.41 129.117 269.034 129.32 267.455 129.32ZM272.287 120.168C272.671 120.168 272.959 120.093 273.151 119.944C273.343 119.773 273.439 119.475 273.439 119.048C273.439 118.28 273.183 117.587 272.671 116.968C272.159 116.349 271.434 115.869 270.495 115.528C269.578 115.187 268.532 115.016 267.359 115.016C265.46 115.016 263.956 115.485 262.847 116.424C261.759 117.341 261.215 118.589 261.215 120.168H272.287ZM295.158 137C293.579 137 292.171 136.765 290.934 136.296C289.697 135.827 288.79 135.187 288.214 134.376C288.065 134.163 287.99 133.949 287.99 133.736C287.99 133.395 288.161 133.096 288.502 132.84C288.63 132.733 288.822 132.68 289.078 132.68C289.441 132.68 289.782 132.851 290.102 133.192C290.571 133.747 291.254 134.184 292.15 134.504C293.067 134.845 294.038 135.016 295.062 135.016C296.982 135.016 298.497 134.44 299.606 133.288C300.737 132.136 301.302 130.579 301.302 128.616V126.44C300.641 127.315 299.798 127.987 298.774 128.456C297.75 128.904 296.619 129.128 295.382 129.128C292.779 129.128 290.742 128.392 289.27 126.92C287.819 125.427 287.094 123.357 287.094 120.712V114.184C287.094 113.864 287.211 113.597 287.446 113.384C287.681 113.149 287.969 113.032 288.31 113.032C288.651 113.032 288.929 113.149 289.142 113.384C289.377 113.597 289.494 113.864 289.494 114.184V120.712C289.494 122.76 290.006 124.36 291.03 125.512C292.075 126.643 293.526 127.208 295.382 127.208C297.217 127.208 298.635 126.664 299.638 125.576C300.641 124.488 301.142 122.941 301.142 120.936V114.504C301.142 114.035 301.249 113.672 301.462 113.416C301.697 113.139 302.017 113 302.422 113C302.806 113 303.105 113.139 303.318 113.416C303.553 113.672 303.67 114.035 303.67 114.504V128.456C303.67 130.141 303.307 131.624 302.582 132.904C301.878 134.205 300.886 135.208 299.606 135.912C298.326 136.637 296.843 137 295.158 137ZM315.989 129.32C314.133 129.32 312.544 128.947 311.221 128.2C309.899 127.453 308.896 126.461 308.213 125.224C307.552 123.965 307.221 122.611 307.221 121.16C307.221 119.709 307.552 118.365 308.213 117.128C308.896 115.869 309.899 114.867 311.221 114.12C312.544 113.373 314.133 113 315.989 113C317.845 113 319.424 113.373 320.725 114.12C322.048 114.867 323.04 115.869 323.701 117.128C324.384 118.365 324.725 119.709 324.725 121.16C324.725 122.611 324.384 123.965 323.701 125.224C323.04 126.461 322.048 127.453 320.725 128.2C319.424 128.947 317.845 129.32 315.989 129.32ZM315.989 127.304C317.909 127.304 319.445 126.76 320.597 125.672C321.771 124.584 322.357 123.08 322.357 121.16C322.357 119.24 321.771 117.736 320.597 116.648C319.445 115.56 317.909 115.016 315.989 115.016C314.048 115.016 312.491 115.56 311.317 116.648C310.165 117.736 309.589 119.24 309.589 121.16C309.589 123.08 310.165 124.584 311.317 125.672C312.491 126.76 314.048 127.304 315.989 127.304ZM334.956 129.32C332.866 129.32 331.223 128.723 330.028 127.528C328.855 126.333 328.268 124.669 328.268 122.536V114.28C328.268 113.875 328.375 113.565 328.588 113.352C328.802 113.117 329.09 113 329.452 113C329.815 113 330.092 113.117 330.284 113.352C330.498 113.565 330.604 113.875 330.604 114.28V122.536C330.604 124.051 331.01 125.224 331.82 126.056C332.631 126.888 333.762 127.304 335.212 127.304C336.364 127.304 337.388 127.048 338.284 126.536C339.18 126.024 339.874 125.309 340.364 124.392C340.876 123.475 341.132 122.419 341.132 121.224V114.28C341.132 113.875 341.228 113.565 341.42 113.352C341.634 113.117 341.932 113 342.316 113C342.679 113 342.956 113.117 343.148 113.352C343.362 113.565 343.468 113.875 343.468 114.28V128.04C343.468 128.445 343.362 128.765 343.148 129C342.956 129.213 342.679 129.32 342.316 129.32C341.932 129.32 341.634 129.203 341.42 128.968C341.228 128.733 341.132 128.424 341.132 128.04V126.152C340.343 127.176 339.426 127.965 338.38 128.52C337.335 129.053 336.194 129.32 334.956 129.32ZM349.143 129.32C348.78 129.32 348.492 129.213 348.279 129C348.087 128.765 347.991 128.445 347.991 128.04V114.28C347.991 113.875 348.087 113.565 348.279 113.352C348.471 113.117 348.759 113 349.143 113C349.505 113 349.783 113.117 349.975 113.352C350.188 113.565 350.295 113.875 350.295 114.28V116.2C351.745 114.28 353.751 113.32 356.311 113.32H357.111C357.516 113.32 357.836 113.416 358.071 113.608C358.305 113.779 358.423 114.024 358.423 114.344C358.423 114.664 358.305 114.909 358.071 115.08C357.836 115.251 357.516 115.336 357.111 115.336H356.215C354.401 115.336 352.961 115.859 351.895 116.904C350.849 117.928 350.327 119.325 350.327 121.096V128.04C350.327 128.424 350.22 128.733 350.007 128.968C349.815 129.203 349.527 129.32 349.143 129.32ZM371.454 129.32C371.091 129.32 370.803 129.213 370.59 129C370.398 128.765 370.302 128.445 370.302 128.04V114.28C370.302 113.875 370.398 113.565 370.59 113.352C370.803 113.117 371.091 113 371.454 113C371.838 113 372.126 113.117 372.318 113.352C372.531 113.587 372.638 113.896 372.638 114.28V116.104C373.214 115.144 373.95 114.387 374.846 113.832C375.763 113.277 376.723 113 377.726 113C378.728 113 379.614 113.277 380.382 113.832C381.15 114.365 381.715 115.123 382.078 116.104C382.824 115.101 383.646 114.333 384.542 113.8C385.459 113.267 386.408 113 387.39 113C389.075 113 390.344 113.523 391.198 114.568C392.051 115.592 392.478 117.117 392.478 119.144V128.04C392.478 128.445 392.371 128.765 392.158 129C391.944 129.213 391.656 129.32 391.294 129.32C390.526 129.32 390.142 128.893 390.142 128.04V119.08C390.142 117.715 389.907 116.701 389.438 116.04C388.99 115.357 388.211 115.016 387.102 115.016C386.163 115.016 385.32 115.304 384.574 115.88C383.827 116.435 383.23 117.245 382.782 118.312V128.04C382.782 128.445 382.675 128.765 382.462 129C382.248 129.213 381.96 129.32 381.598 129.32C381.235 129.32 380.947 129.213 380.734 129C380.542 128.765 380.446 128.445 380.446 128.04V119.56C380.446 118.088 380.179 116.968 379.646 116.2C379.134 115.411 378.398 115.016 377.438 115.016C376.52 115.016 375.699 115.272 374.974 115.784C374.248 116.275 373.672 116.957 373.246 117.832C372.84 118.707 372.638 119.699 372.638 120.808V128.04C372.638 128.424 372.531 128.733 372.318 128.968C372.126 129.203 371.838 129.32 371.454 129.32ZM404.239 129.32C402.383 129.32 400.794 128.947 399.471 128.2C398.149 127.453 397.146 126.461 396.463 125.224C395.802 123.965 395.471 122.611 395.471 121.16C395.471 119.709 395.802 118.365 396.463 117.128C397.146 115.869 398.149 114.867 399.471 114.12C400.794 113.373 402.383 113 404.239 113C406.095 113 407.674 113.373 408.975 114.12C410.298 114.867 411.29 115.869 411.951 117.128C412.634 118.365 412.975 119.709 412.975 121.16C412.975 122.611 412.634 123.965 411.951 125.224C411.29 126.461 410.298 127.453 408.975 128.2C407.674 128.947 406.095 129.32 404.239 129.32ZM404.239 127.304C406.159 127.304 407.695 126.76 408.847 125.672C410.021 124.584 410.607 123.08 410.607 121.16C410.607 119.24 410.021 117.736 408.847 116.648C407.695 115.56 406.159 115.016 404.239 115.016C402.298 115.016 400.741 115.56 399.567 116.648C398.415 117.736 397.839 119.24 397.839 121.16C397.839 123.08 398.415 124.584 399.567 125.672C400.741 126.76 402.298 127.304 404.239 127.304ZM423.802 129.32C421.946 129.32 420.356 128.947 419.034 128.2C417.711 127.453 416.708 126.461 416.026 125.224C415.364 123.965 415.034 122.611 415.034 121.16C415.034 119.709 415.364 118.365 416.026 117.128C416.708 115.869 417.711 114.867 419.034 114.12C420.356 113.373 421.946 113 423.802 113C425.658 113 427.236 113.373 428.538 114.12C429.86 114.867 430.852 115.869 431.514 117.128C432.196 118.365 432.538 119.709 432.538 121.16C432.538 122.611 432.196 123.965 431.514 125.224C430.852 126.461 429.86 127.453 428.538 128.2C427.236 128.947 425.658 129.32 423.802 129.32ZM423.802 127.304C425.722 127.304 427.258 126.76 428.41 125.672C429.583 124.584 430.17 123.08 430.17 121.16C430.17 119.24 429.583 117.736 428.41 116.648C427.258 115.56 425.722 115.016 423.802 115.016C421.86 115.016 420.303 115.56 419.13 116.648C417.978 117.736 417.402 119.24 417.402 121.16C417.402 123.08 417.978 124.584 419.13 125.672C420.303 126.76 421.86 127.304 423.802 127.304ZM443.889 129.32C441.243 129.32 439.153 128.605 437.617 127.176C436.102 125.725 435.345 123.752 435.345 121.256C435.345 119.677 435.675 118.269 436.337 117.032C437.019 115.773 438.001 114.792 439.281 114.088C440.582 113.363 442.139 113 443.953 113C445.489 113 446.79 113.288 447.857 113.864C448.945 114.44 449.905 115.24 450.737 116.264L450.769 105.992C450.769 105.587 450.865 105.277 451.057 105.064C451.27 104.829 451.569 104.712 451.953 104.712C452.315 104.712 452.593 104.829 452.785 105.064C452.998 105.277 453.105 105.587 453.105 105.992V128.04C453.105 128.445 452.998 128.765 452.785 129C452.593 129.213 452.315 129.32 451.953 129.32C451.59 129.32 451.302 129.213 451.089 129C450.875 128.765 450.769 128.445 450.769 128.04V125.992C450.022 127.08 449.062 127.912 447.889 128.488C446.737 129.043 445.403 129.32 443.889 129.32ZM444.081 127.304C446.15 127.304 447.782 126.76 448.977 125.672C450.171 124.563 450.769 123.059 450.769 121.16C450.769 119.901 450.459 118.813 449.841 117.896C449.243 116.957 448.433 116.243 447.409 115.752C446.406 115.261 445.307 115.016 444.113 115.016C442.107 115.016 440.539 115.592 439.409 116.744C438.278 117.875 437.713 119.379 437.713 121.256C437.713 123.261 438.267 124.776 439.377 125.8C440.486 126.803 442.054 127.304 444.081 127.304Z" fill="black"/>
<defs>
<filter id="filter0_d_738_1088" x="0.5" y="0.5" width="706" height="479" filterUnits="userSpaceOnUse" color-interpolation-filters="sRGB">
<feFlood flood-opacity="0" result="BackgroundImageFix"/>
<feColorMatrix in="SourceAlpha" type="matrix" values="0 0 0 0 0 0 0 0 0 0 0 0 0 0 0 0 0 0 127 0" result="hardAlpha"/>
<feOffset dy="58"/>
<feGaussianBlur stdDeviation="33.5"/>
<feColorMatrix type="matrix" values="0 0 0 0 0 0 0 0 0 0 0 0 0 0 0 0 0 0 0.09 0"/>
<feBlend mode="normal" in2="BackgroundImageFix" result="effect1_dropShadow_738_1088"/>
<feBlend mode="normal" in="SourceGraphic" in2="effect1_dropShadow_738_1088" result="shape"/>
</filter>
<filter id="filter1_b_738_1088" x="21" y="16" width="665" height="385" filterUnits="userSpaceOnUse" color-interpolation-filters="sRGB">
<feFlood flood-opacity="0" result="BackgroundImageFix"/>
<feGaussianBlur in="BackgroundImageFix" stdDeviation="23.5"/>
<feComposite in2="SourceAlpha" operator="in" result="effect1_backgroundBlur_738_1088"/>
<feBlend mode="normal" in="SourceGraphic" in2="effect1_backgroundBlur_738_1088" result="shape"/>
</filter>
<filter id="filter2_b_738_1088" x="12" y="-46" width="683" height="165" filterUnits="userSpaceOnUse" color-interpolation-filters="sRGB">
<feFlood flood-opacity="0" result="BackgroundImageFix"/>
<feGaussianBlur in="BackgroundImageFix" stdDeviation="28"/>
<feComposite in2="SourceAlpha" operator="in" result="effect1_backgroundBlur_738_1088"/>
<feBlend mode="normal" in="SourceGraphic" in2="effect1_backgroundBlur_738_1088" result="shape"/>
</filter>
<filter id="filter3_i_738_1088" x="89" y="30" width="12" height="12" filterUnits="userSpaceOnUse" color-interpolation-filters="sRGB">
<feFlood flood-opacity="0" result="BackgroundImageFix"/>
<feBlend mode="normal" in="SourceGraphic" in2="BackgroundImageFix" result="shape"/>
<feColorMatrix in="SourceAlpha" type="matrix" values="0 0 0 0 0 0 0 0 0 0 0 0 0 0 0 0 0 0 127 0" result="hardAlpha"/>
<feOffset/>
<feGaussianBlur stdDeviation="3"/>
<feComposite in2="hardAlpha" operator="arithmetic" k2="-1" k3="1"/>
<feColorMatrix type="matrix" values="0 0 0 0 0.92549 0 0 0 0 0.427451 0 0 0 0 0.384314 0 0 0 1 0"/>
<feBlend mode="normal" in2="shape" result="effect1_innerShadow_738_1088"/>
</filter>
<filter id="filter4_i_738_1088" x="109" y="30" width="12" height="12" filterUnits="userSpaceOnUse" color-interpolation-filters="sRGB">
<feFlood flood-opacity="0" result="BackgroundImageFix"/>
<feBlend mode="normal" in="SourceGraphic" in2="BackgroundImageFix" result="shape"/>
<feColorMatrix in="SourceAlpha" type="matrix" values="0 0 0 0 0 0 0 0 0 0 0 0 0 0 0 0 0 0 127 0" result="hardAlpha"/>
<feOffset/>
<feGaussianBlur stdDeviation="3"/>
<feComposite in2="hardAlpha" operator="arithmetic" k2="-1" k3="1"/>
<feColorMatrix type="matrix" values="0 0 0 0 0.960784 0 0 0 0 0.768627 0 0 0 0 0.317647 0 0 0 1 0"/>
<feBlend mode="normal" in2="shape" result="effect1_innerShadow_738_1088"/>
</filter>
<filter id="filter5_i_738_1088" x="129" y="30" width="12" height="12" filterUnits="userSpaceOnUse" color-interpolation-filters="sRGB">
<feFlood flood-opacity="0" result="BackgroundImageFix"/>
<feBlend mode="normal" in="SourceGraphic" in2="BackgroundImageFix" result="shape"/>
<feColorMatrix in="SourceAlpha" type="matrix" values="0 0 0 0 0 0 0 0 0 0 0 0 0 0 0 0 0 0 127 0" result="hardAlpha"/>
<feOffset/>
<feGaussianBlur stdDeviation="3"/>
<feComposite in2="hardAlpha" operator="arithmetic" k2="-1" k3="1"/>
<feColorMatrix type="matrix" values="0 0 0 0 0.407843 0 0 0 0 0.8 0 0 0 0 0.345098 0 0 0 1 0"/>
<feBlend mode="normal" in2="shape" result="effect1_innerShadow_738_1088"/>
</filter>
<linearGradient id="paint0_linear_738_1088" x1="34.3199" y1="-31.0255" x2="601.632" y2="420.811" gradientUnits="userSpaceOnUse">
<stop stop-color="white"/>
<stop offset="0.640625" stop-color="white" stop-opacity="0"/>
<stop offset="1" stop-color="white"/>
</linearGradient>
<clipPath id="clip0_738_1088">
<rect x="68" y="10" width="571" height="344" rx="10" fill="white"/>
</clipPath>
<clipPath id="clip1_738_1088">
<rect width="115" height="28" fill="white" transform="translate(512 22)"/>
</clipPath>
<clipPath id="clip2_738_1088">
<rect width="66" height="28" fill="white" transform="translate(202 22)"/>
</clipPath>
<clipPath id="clip3_738_1088">
<rect width="267.656" height="28" fill="white" transform="translate(219.672 22)"/>
</clipPath>
<clipPath id="clip4_738_1088">
<rect x="324.258" y="29.5" width="58.8281" height="13" fill="white"/>
</clipPath>
</defs>
</svg>
