<svg width="109" height="252" viewBox="0 0 109 252" fill="none" xmlns="http://www.w3.org/2000/svg">
<rect y="149" width="109" height="103" fill="white"/>
<path d="M49.0869 220.328V208.984H46.4309V207.512H50.7669V220.328H49.0869ZM55.0093 209.624C55.6333 209.624 56.1133 210.12 56.1133 210.744C56.1133 211.368 55.6333 211.864 55.0093 211.864C54.3693 211.864 53.8893 211.368 53.8893 210.744C53.8893 210.12 54.3693 209.624 55.0093 209.624ZM55.0093 215.992C55.6333 215.992 56.1133 216.472 56.1133 217.112C56.1133 217.736 55.6333 218.216 55.0093 218.216C54.3693 218.216 53.8893 217.736 53.8893 217.112C53.8893 216.472 54.3693 215.992 55.0093 215.992ZM60.4307 220.328V208.984H57.7747V207.512H62.1107V220.328H60.4307ZM37.4668 225.608H39.3868V227.112H37.4668V230.552H35.8828V223H37.4668V225.608ZM29.7548 227.288C28.7628 228.888 27.1628 230.008 25.1308 230.28V228.84C27.7228 228.376 29.2428 226.008 29.2748 223.128L30.8588 223.224C30.8588 224.232 30.6828 225.176 30.3628 226.04L34.6028 228.792L33.7868 229.96L29.7548 227.288ZM31.8188 231C35.0988 231 37.6748 231.784 37.6748 233.832C37.6748 235.88 35.0988 236.664 31.8188 236.664C28.5548 236.664 25.9628 235.88 25.9628 233.832C25.9628 231.784 28.5548 231 31.8188 231ZM31.8188 235.352C34.1548 235.352 35.9788 234.888 35.9788 233.832C35.9788 232.792 34.1548 232.312 31.8188 232.312C29.4988 232.312 27.6588 232.792 27.6588 233.832C27.6588 234.888 29.4988 235.352 31.8188 235.352ZM54.7774 225.8V227.32H52.8574V230.424H51.2734V223H52.8574V225.8H54.7774ZM50.2814 229.16C49.4494 229.528 47.8174 229.768 45.8814 229.768H40.9694V223.336H49.3054V224.68H42.5534V228.424H45.9774C47.8334 228.424 49.4014 228.2 50.2814 227.816V229.16ZM41.4334 236.488V231.176H52.8574V236.488H41.4334ZM43.0174 232.52V235.144H51.2734V232.52H43.0174ZM61.416 222.968V225.16H65.048V226.568H56.184V225.16H59.8V222.968H61.416ZM70.168 228.536V230.056H68.248V236.664H66.664V223H68.248V228.536H70.168ZM60.616 227.656C62.84 227.656 64.408 229.32 64.408 231.832C64.408 234.344 62.84 236.008 60.616 236.008C58.392 236.008 56.808 234.344 56.808 231.832C56.808 229.32 58.392 227.656 60.616 227.656ZM60.616 234.632C61.88 234.632 62.872 233.576 62.872 231.832C62.872 230.088 61.88 229.032 60.616 229.032C59.336 229.032 58.344 230.088 58.344 231.832C58.344 233.576 59.336 234.632 60.616 234.632ZM82.4386 236.664V223H84.0226V236.664H82.4386ZM71.9106 235.816V234.312C75.6386 234.296 77.8786 231.4 77.8786 226.824V224.952H71.9106V223.496H79.4946V226.792C79.4946 232.264 76.5826 235.816 71.9106 235.816Z" fill="black"/>
<rect width="109" height="157" fill="#FFC8C8"/>
<rect x="8.39374" y="70.9651" width="87" height="36.5648" transform="rotate(-9.60203 8.39374 70.9651)" fill="#FFE455"/>
<path d="M24.5943 47.9201L25.9575 47.6697L28.1177 59.4289L26.7545 59.6793L24.5943 47.9201ZM20.3176 50.4423C20.5543 51.8081 20.6467 53.0864 20.6288 54.2284L25.3432 58.2732L24.4184 59.2829L20.5103 55.8302C20.1506 58.4442 19.0143 60.1618 17.2759 60.6947L17.0281 59.3452C19.0502 58.5752 19.6874 55.0704 18.9406 50.6953L15.8287 51.267L15.5985 50.0139L23.1029 48.6353L23.3331 49.8884L20.3176 50.4423ZM38.4805 49.5967L37.967 46.8015L29.2509 48.4027L29.0384 47.246L39.1315 45.3919L39.8575 49.3437L38.4805 49.5967ZM29.3185 53.1872L29.1085 52.0443L40.854 49.8866L41.0639 51.0295L29.3185 53.1872ZM31.1756 58.7248L30.351 54.2359L40.4578 52.3792L41.2825 56.8681L31.1756 58.7248ZM32.3339 57.359L39.7282 56.0007L39.3133 53.7425L31.919 55.1008L32.3339 57.359ZM58.5041 46.6157L58.7444 47.9238L57.0921 48.2274L58.1368 53.9142L56.7736 54.1647L54.6134 42.4054L55.9765 42.155L56.8518 46.9193L58.5041 46.6157ZM46.0681 45.7118L45.8379 44.4588L52.2408 43.2826L52.7619 46.1191C53.6219 50.8007 51.7789 54.3278 47.7857 55.0614L47.5479 53.767C50.7399 53.1664 52.0997 50.3402 51.3762 46.4021L51.0802 44.7911L46.0681 45.7118ZM68.189 39.9115L69.5522 39.6611L70.6601 45.6922L69.2969 45.9426L68.189 39.9115ZM66.6688 43.3366C66.9875 45.0715 65.773 46.5188 63.5286 46.9311C61.2704 47.3459 59.6208 46.4248 59.3021 44.6899C58.9859 42.9687 60.1978 41.5076 62.4561 41.0928C64.7005 40.6805 66.3526 41.6154 66.6688 43.3366ZM60.6653 44.4394C60.8727 45.5685 61.9467 46.0687 63.3237 45.8158C64.7007 45.5628 65.513 44.7161 65.3056 43.587C65.0982 42.4579 64.0379 41.9552 62.661 42.2081C61.284 42.4611 60.4578 43.3103 60.6653 44.4394ZM69.671 47.824L69.4433 46.5847L70.779 46.3393L71.6846 51.2688L61.8531 53.0749L60.9475 48.1454L62.2969 47.8975L62.5246 49.1368L69.671 47.824ZM62.9976 51.7117L70.144 50.3989L69.8708 48.9118L62.7244 50.2246L62.9976 51.7117ZM76.5822 38.3412L76.9287 40.2276L80.0544 39.6534L80.277 40.8651L72.6487 42.2665L72.4261 41.0548L75.538 40.4831L75.1915 38.5967L76.5822 38.3412ZM84.9944 41.7493L85.2347 43.0574L83.5824 43.361L84.6271 49.0478L83.2639 49.2982L81.1037 37.539L82.4668 37.2886L83.3421 42.0529L84.9944 41.7493ZM76.6349 42.5021C78.5488 42.1505 80.1613 43.3347 80.5585 45.4965C80.9556 47.6583 79.8693 49.3382 77.9553 49.6899C76.0413 50.0415 74.415 48.8599 74.0179 46.698C73.6208 44.5362 74.7209 42.8537 76.6349 42.5021ZM77.7377 48.5057C78.8255 48.3058 79.5123 47.2402 79.2366 45.7393C78.9609 44.2384 77.9402 43.4865 76.8524 43.6863C75.7508 43.8887 75.0641 44.9543 75.3398 46.4552C75.6155 47.9561 76.6362 48.708 77.7377 48.5057ZM96.3957 43.7685L95.7785 40.4088L93.8508 40.7629L93.6282 39.5512L95.5559 39.197L95.2523 37.5447L93.3246 37.8988L93.102 36.6871L95.0297 36.333L94.7894 35.0249L96.1389 34.777L97.7451 43.5206L96.3957 43.7685ZM92.2263 35.7946L93.395 42.1562L86.7856 43.3704L85.6169 37.0088L92.2263 35.7946ZM91.828 41.2199L91.0945 37.2267L87.1701 37.9476L87.9037 41.9408L91.828 41.2199ZM89.4264 46.7427L98.294 45.1137L98.5191 46.3392L88.2608 48.2237L87.5601 44.4095L88.9508 44.154L89.4264 46.7427Z" fill="black"/>
<path d="M29.3765 84.2782C25.308 84.9769 22.3783 82.9476 21.6676 79.6604L24.1276 79.2379C24.5479 81.26 26.3339 82.5848 29.0068 82.1257C31.656 81.6708 32.9808 79.8847 32.6558 77.9924C32.2902 75.8636 30.3719 74.9025 27.5098 75.394L25.4282 75.7515L25.0748 73.6936L27.1563 73.3361C29.569 72.9218 30.9655 71.2696 30.6283 69.3063C30.3115 67.4613 28.5849 66.1993 26.0777 66.6299C23.5231 67.0687 22.4362 69.106 22.7815 71.1166L20.2979 71.5431C19.7251 68.208 21.8328 65.1673 25.712 64.5011C29.6149 63.8308 32.5643 65.8325 33.0761 68.8129C33.4742 71.1309 32.1184 73.0197 30.4411 73.746C32.418 73.7718 34.6372 74.9248 35.0881 77.5504C35.6325 80.72 33.3503 83.5958 29.3765 84.2782ZM52.2271 59.6308L54.4742 59.2449L57.9435 79.4451L55.6964 79.831L54.0024 69.9675L50.5489 70.5606L52.182 80.0693L49.9349 80.4553L46.5469 60.7281L48.794 60.3422L50.1711 68.3608L53.6246 67.7677L52.2271 59.6308ZM35.9955 65.365L35.6299 63.2361L44.0743 61.7859L45.0086 67.2262C46.3492 75.0319 43.6934 80.5531 38.7579 81.4495L38.3801 79.2497C42.1207 78.4855 43.8306 73.979 42.7582 67.7345L42.1691 64.3047L35.9955 65.365ZM76.3438 66.6419L75.2998 60.5629L72.5086 61.0422L72.1471 58.9371L74.9382 58.4577L74.4832 55.8085L76.825 55.4063L78.6855 66.2397L76.3438 66.6419ZM65.9566 64.5783C62.4086 65.1876 59.8394 64.2652 59.4616 62.0654C59.0878 59.8893 61.198 58.1388 64.746 57.5295C68.2941 56.9201 70.8674 57.8662 71.2411 60.0424C71.6189 62.2421 69.5047 63.9689 65.9566 64.5783ZM65.0426 59.2562C62.8664 59.6299 61.5373 60.54 61.7323 61.6754C61.9232 62.7871 63.4839 63.2253 65.6601 62.8516C67.8599 62.4738 69.1613 61.5441 68.9703 60.4323C68.7754 59.297 67.2424 58.8784 65.0426 59.2562ZM65.1457 76.1627L80.4497 73.5344L80.7462 75.2611L63.1242 78.2875L62.2955 73.4622L77.1264 70.9151L76.8786 69.4722L62.0004 72.0274L61.7038 70.3007L65.5121 69.6466L65.2115 67.8963L59.5582 68.8672L59.2495 67.0695L67.5993 65.6355C70.3667 65.1602 72.7861 64.5012 74.0842 63.6938L74.3929 65.4915C73.2131 66.2785 70.7228 66.9498 67.837 67.4454L67.5295 67.4982L67.8302 69.2485L78.8764 67.3514L79.7051 72.1768L64.8979 74.7198L65.1457 76.1627ZM49.7145 94.6413L49.3651 92.6071L44.9655 93.3626L44.6365 91.4467L49.036 90.6911L48.6786 88.6096L45.1542 89.2149L44.8251 87.2989L48.3495 86.6936L48.0083 84.7067L50.35 84.3045L52.0562 94.2391L49.7145 94.6413ZM43.9292 88.0372C44.7782 92.9808 40.4995 95.8586 33.6163 97.0407L33.2791 95.0775C38.881 94.091 42.213 92.0821 41.6524 88.8179L41.5712 88.3448L32.3936 89.921L32.0564 87.9577L43.5757 85.9793L43.9292 88.0372ZM38.6741 104.939L53.9544 102.314L54.2713 104.159L36.6729 107.182L35.7548 101.836L50.5384 99.297L50.2378 97.5466L35.4069 100.094L35.09 98.2487L52.239 95.3035L53.1571 100.649L38.3735 103.188L38.6741 104.939ZM71.2815 80.7097L73.5049 80.3279L76.9742 100.528L74.7507 100.91L71.2815 80.7097ZM67.3743 89.295L66.0743 81.7258L68.2978 81.3439L71.6858 101.071L69.4623 101.453L67.7521 91.4948L64.5588 92.0432L64.181 89.8434L67.3743 89.295ZM61.0342 85.4161C61.4006 87.6909 61.6317 89.7455 61.7275 91.5797L68.1343 99.392L66.4052 100.809L61.6887 94.8982C61.398 99.1609 60.0139 101.736 57.5129 102.629L57.1188 100.334C59.6658 99.1418 60.0723 93.5686 58.7871 85.802L55.0735 86.4398L54.7079 84.311L64.2167 82.6779L64.5823 84.8068L61.0342 85.4161Z" fill="black"/>
<path d="M19.2284 118.044C19.4296 119.13 19.5679 120.147 19.6216 121.066L23.9219 125.753L22.8302 126.738L19.6567 123.197C19.51 125.804 18.6194 127.468 16.9597 128.061L16.6642 126.586C18.3271 125.845 18.5363 122.654 17.738 118.343L15.2593 118.839L14.9764 117.428L17.4552 116.931L17.0498 114.907L18.5402 114.609L18.9456 116.632L21.3773 116.145L21.6601 117.557L19.2284 118.044ZM25.7788 113.191L27.2535 112.896L29.9373 126.294L28.4626 126.589L25.7788 113.191ZM23.399 119.314L22.3274 113.964L23.8021 113.669L26.423 126.753L24.9483 127.048L23.6913 120.773L21.8244 121.147L21.5321 119.688L23.399 119.314ZM38.8211 111.754L39.063 112.962L29.9638 114.784L29.7218 113.576L33.487 112.822L33.2136 111.457L34.7824 111.143L35.0559 112.508L38.8211 111.754ZM40.5244 110.237L42.0776 109.926L43.6741 117.896L42.1209 118.207L41.6149 115.681L39.5127 116.102L39.2362 114.722L41.3384 114.301L40.5244 110.237ZM35.6228 119.411C33.4421 119.848 31.5435 119.331 31.2356 117.793C30.9307 116.271 32.4804 115.047 34.6611 114.61C36.8418 114.173 38.7278 114.709 39.0327 116.231C39.3406 117.769 37.8035 118.974 35.6228 119.411ZM34.8937 115.771C33.4033 116.07 32.5688 116.792 32.7103 117.498C32.8517 118.204 33.903 118.564 35.3934 118.266C36.8838 117.967 37.6994 117.233 37.558 116.527C37.4165 115.821 36.3841 115.473 34.8937 115.771ZM33.3214 125.436L32.4195 120.934L43.7778 118.658L44.6798 123.161L33.3214 125.436ZM34.2052 121.865L34.6106 123.889L42.8941 122.23L42.4887 120.206L34.2052 121.865ZM64.0491 111.171L64.3476 112.661L62.465 113.039L63.7629 119.518L62.2098 119.829L59.526 106.431L61.0791 106.12L62.1665 111.548L64.0491 111.171ZM49.8218 110.366L49.5358 108.938L56.8309 107.477L57.4782 110.709C58.5467 116.043 56.5052 120.107 51.9556 121.018L51.6602 119.543C55.2968 118.799 56.7988 115.544 55.9 111.057L55.5323 109.222L49.8218 110.366ZM65.9458 110.057L64.9998 105.335L66.5687 105.02L67.2632 108.487L77.3194 106.473L77.5708 107.728L65.9458 110.057ZM65.5073 112.837L65.2559 111.582L78.6381 108.901L78.8895 110.156L65.5073 112.837ZM73.4162 117.617C70.2158 118.258 67.4074 118.168 67.0397 116.332C66.672 114.497 69.2321 113.347 72.4325 112.706C75.633 112.065 78.4382 112.14 78.8059 113.975C79.1736 115.811 76.6166 116.976 73.4162 117.617ZM73.1711 116.393C75.3361 115.959 77.3597 115.228 77.1743 114.302C76.9921 113.392 74.8427 113.496 72.6777 113.93C70.5127 114.364 68.489 115.095 68.6713 116.005C68.8567 116.931 71.0061 116.827 73.1711 116.393ZM81.6343 111.973L79.4225 102.968L81.4149 102.568L82.8266 111.734L81.6343 111.973ZM82.9784 115.587C82.3195 115.719 81.7169 115.318 81.5849 114.659C81.4561 114.015 81.8575 113.413 82.5164 113.281C83.1754 113.149 83.7779 113.55 83.9068 114.193C84.0388 114.852 83.6373 115.455 82.9784 115.587ZM85.7096 111.156L83.4978 102.151L85.4902 101.752L86.9019 110.917L85.7096 111.156ZM87.0537 114.771C86.3948 114.903 85.7922 114.501 85.6602 113.842C85.5314 113.199 85.9328 112.596 86.5917 112.464C87.2506 112.332 87.8532 112.734 87.9821 113.377C88.1141 114.036 87.7126 114.639 87.0537 114.771Z" fill="black"/>
<path d="M65.3125 185.639C66.4176 185.994 67.1875 187.049 67.1875 188.26V193.617C67.1875 195.038 66.1282 196.243 64.7122 196.358C64.2885 196.393 63.8636 196.423 63.4375 196.449V200.312L59.6875 196.562C57.9953 196.562 56.3195 196.494 54.6628 196.358C54.2899 196.328 53.9418 196.222 53.6312 196.056M65.3125 185.639C65.1232 185.578 64.9241 185.538 64.7174 185.52C63.059 185.383 61.3814 185.312 59.6875 185.312C57.9935 185.312 56.316 185.383 54.6576 185.52C53.2437 185.638 52.1875 186.842 52.1875 188.26V193.617C52.1875 194.664 52.7623 195.593 53.6312 196.056M65.3125 185.639V183.297C65.3125 181.27 63.8728 179.513 61.8629 179.252C59.3098 178.921 56.7063 178.75 54.0629 178.75C51.4192 178.75 48.8154 178.921 46.262 179.252C44.2522 179.513 42.8125 181.27 42.8125 183.297V191.078C42.8125 193.105 44.2522 194.862 46.2621 195.123C46.9833 195.216 47.7085 195.297 48.4375 195.365V201.25L53.6312 196.056" stroke="black" stroke-width="1.5" stroke-linecap="round" stroke-linejoin="round"/>
</svg>
