<svg width="202" height="41" viewBox="0 0 202 41" fill="none" xmlns="http://www.w3.org/2000/svg">
<rect x="100" y="20" width="53" height="21" fill="#53D0D0"/>
<rect x="118.147" y="0.431213" width="65" height="21" fill="#53D0D0"/>
<path d="M1.856 9.928V5.16H13.552V6.44H3.44V8.648H13.712V9.928H1.856ZM0.88 12.536V11.256H14.528V12.536H0.88ZM1.824 18.504V13.864H13.584V15.128H3.424V17.24H13.744V18.504H1.824ZM27.3586 14.504V6.968H17.1026V5.48H29.0066V14.504H27.3586ZM22.9906 16.52H29.9186V18.008H16.2706V16.52H21.3586V10.424H22.9906V16.52ZM48.8976 5V12.248H47.3136V5H48.8976ZM40.9936 9.144C39.9696 10.648 38.3536 11.672 36.3536 11.944V10.504C38.9456 10.04 40.5616 7.832 40.5776 5.128L42.1616 5.224C42.1616 6.2 41.9856 7.112 41.6336 7.944L45.9696 10.616L45.1536 11.784L40.9936 9.144ZM46.6256 17.224H49.1856V18.536H37.1056V17.224H39.6656V14.328H37.2656V13.032H49.0256V14.328H46.6256V17.224ZM41.2496 14.328V17.224H45.0416V14.328H41.2496ZM58.3523 10.888C55.0403 10.888 52.2883 9.928 52.2883 7.896C52.2883 5.88 55.0403 4.92 58.3523 4.92C61.6643 4.92 64.4163 5.88 64.4163 7.896C64.4163 9.928 61.6643 10.888 58.3523 10.888ZM58.3523 9.608C60.7363 9.608 62.7363 9.016 62.7363 7.896C62.7363 6.792 60.7363 6.2 58.3523 6.2C55.9683 6.2 53.9683 6.792 53.9683 7.896C53.9683 9.016 55.9683 9.608 58.3523 9.608ZM51.5363 13.448V12.104H65.1843V13.448H51.5363ZM52.4803 18.504V14.616H54.0963V17.144H64.4803V18.504H52.4803ZM79.0433 16.52H85.0593V18.008H71.4113V16.52H77.4273V12.968H72.3073V5.32H73.9393V11.48H84.2113V12.968H79.0433V16.52ZM98.4339 5H99.9379V18.664H98.4339V11.976H96.2099V18.424H94.7059V5.08H96.2099V10.504H98.4339V5ZM88.7059 16.44H89.7619C91.4099 16.44 92.7059 16.232 93.7139 15.784V17.24C92.8179 17.64 91.4259 17.848 89.7299 17.848H87.2179V10.856H91.2499V6.904H87.2179V5.496H92.7539V12.264H88.7059V16.44ZM103.185 10.296V7.208H113.329V6.28H103.185V5.16H114.865V8.264H104.721V9.176H115.057V10.296H103.185ZM102.193 12.44V11.288H115.841V12.44H102.193ZM103.137 18.504V15.432H113.361V14.552H103.105V13.432H114.897V16.488H104.673V17.384H115.137V18.504H103.137ZM136.356 10.536V12.056H134.436V18.664H132.852V5H134.436V10.536H136.356ZM127.7 6.952C127.684 8.552 127.54 10.008 127.284 11.288L131.668 16.792L130.42 17.736L126.82 13.08C125.891 15.912 124.292 17.608 122.228 17.848V16.28C124.644 15.832 126.052 12.024 126.1 6.952H122.548V5.496H131.14V6.952H127.7ZM144.274 12.328C140.61 12.328 138.194 11.016 138.194 8.728C138.194 6.44 140.61 5.128 144.274 5.128C147.938 5.128 150.354 6.44 150.354 8.728C150.354 11.016 147.938 12.328 144.274 12.328ZM144.274 6.536C141.682 6.536 139.842 7.304 139.842 8.728C139.842 10.136 141.682 10.904 144.274 10.904C146.866 10.904 148.706 10.136 148.706 8.728C148.706 7.304 146.866 6.536 144.274 6.536ZM151.106 13.624V15.112H147.73V18.984H146.162V15.112H142.386V18.984H140.818V15.112H137.458V13.624H151.106ZM160.449 11.896H166.497V13.112H152.849V11.896H158.881V10.68H153.841V7.352H163.969V6.328H153.841V5.16H165.521V8.488H155.393V9.512H165.713V10.68H160.449V11.896ZM163.985 14.904V13.896H165.537V18.504H153.793V13.896H155.345V14.904H163.985ZM155.345 17.304H163.985V16.088H155.345V17.304ZM179.855 5H181.375V18.664H179.855V5ZM176.447 10.504V5.08H177.951V18.424H176.447V12.008H173.999C173.311 15.624 171.247 17.784 168.543 17.816V16.328C171.087 16.248 172.719 13.48 172.719 9.256V6.936H168.543V5.496H174.255V9.176C174.255 9.64 174.239 10.072 174.207 10.504H176.447ZM13.968 21.816V23.016H1.424V21.816H6.88V20.456H8.48V21.816H13.968ZM8.48 28.792H14.528V30.024H0.88V28.792H6.912V27.72C3.968 27.64 1.968 27 1.968 25.72C1.968 24.328 4.32 23.704 7.696 23.704C11.072 23.704 13.424 24.328 13.424 25.72C13.424 27 11.424 27.64 8.48 27.72V28.792ZM3.552 25.72C3.552 26.312 5.344 26.568 7.696 26.568C10.064 26.568 11.84 26.312 11.84 25.72C11.84 25.144 10.064 24.872 7.696 24.872C5.344 24.872 3.552 25.144 3.552 25.72ZM1.712 32.392V31.144H13.568V34.68H11.968V32.392H1.712ZM23.0866 26.888C19.7746 26.888 17.0226 25.928 17.0226 23.896C17.0226 21.88 19.7746 20.92 23.0866 20.92C26.3986 20.92 29.1506 21.88 29.1506 23.896C29.1506 25.928 26.3986 26.888 23.0866 26.888ZM23.0866 25.608C25.4706 25.608 27.4706 25.016 27.4706 23.896C27.4706 22.792 25.4706 22.2 23.0866 22.2C20.7026 22.2 18.7026 22.792 18.7026 23.896C18.7026 25.016 20.7026 25.608 23.0866 25.608ZM16.2706 29.448V28.104H29.9186V29.448H16.2706ZM17.2146 34.504V30.616H18.8306V33.144H29.2146V34.504H17.2146ZM48.5136 23.8H50.4336V25.32H48.5136V28.552H46.9296V21H48.5136V23.8ZM45.9376 27.16C45.1056 27.528 43.4736 27.768 41.5376 27.768H36.6256V21.336H44.9616V22.68H38.2096V26.424H41.6336C43.4896 26.424 45.0576 26.2 45.9376 25.816V27.16ZM42.8656 29C46.1456 29 48.7216 29.784 48.7216 31.832C48.7216 33.88 46.1456 34.664 42.8656 34.664C39.6016 34.664 37.0096 33.88 37.0096 31.832C37.0096 29.784 39.6016 29 42.8656 29ZM42.8656 33.352C45.2016 33.352 47.0256 32.888 47.0256 31.832C47.0256 30.792 45.2016 30.312 42.8656 30.312C40.5456 30.312 38.7056 30.792 38.7056 31.832C38.7056 32.888 40.5456 33.352 42.8656 33.352ZM64.2883 21V31.144H62.7043V21H64.2883ZM56.3363 25.88C55.3123 27.592 53.7123 28.824 51.7443 29.08V27.592C54.3363 27.128 55.9363 24.312 55.9683 21.128L57.5523 21.224C57.5523 22.392 57.3443 23.528 56.9603 24.552L61.3443 27.784L60.4003 28.936L56.3363 25.88ZM54.3043 33.08H64.6563V34.488H52.7043V30.136H54.3043V33.08ZM79.2949 24.248H81.2149V25.768H79.2949V31.144H77.7109V21H79.2949V24.248ZM75.3909 21.336V28.712H67.4069V21.336H75.3909ZM73.8229 27.336V22.712H68.9749V27.336H73.8229ZM69.4709 30.056V33.048H79.6629V34.488H67.8709V30.056H69.4709ZM93.5335 34.664V21H95.1175V34.664H93.5335ZM87.0055 29.896C84.5415 29.896 82.7815 28.136 82.7815 25.592C82.7815 23.048 84.5415 21.288 87.0055 21.288C89.4535 21.288 91.2295 23.048 91.2295 25.592C91.2295 28.136 89.4535 29.896 87.0055 29.896ZM87.0055 28.456C88.6215 28.456 89.6775 27.224 89.6775 25.592C89.6775 23.96 88.6215 22.712 87.0055 22.712C85.3735 22.712 84.3335 23.96 84.3335 25.592C84.3335 27.224 85.3735 28.456 87.0055 28.456ZM82.3175 33.848V32.36H87.9015C89.7735 32.36 91.4535 32.152 92.3815 31.72V33.192C91.4695 33.608 89.7735 33.848 87.8055 33.848H82.3175ZM102.609 25.176H104.257V26.472C104.673 25.8 105.489 24.952 107.025 24.952C108.385 24.952 109.425 25.704 109.873 26.872C110.417 25.72 111.569 24.952 113.121 24.952C115.073 24.952 116.481 26.44 116.481 28.76V34.328H114.833V29.032C114.833 27.384 114.033 26.392 112.737 26.392C111.361 26.392 110.369 27.736 110.369 29.4V34.328H108.721V29.096C108.721 27.384 107.905 26.392 106.625 26.392C105.265 26.392 104.257 27.736 104.257 29.384V34.328H102.609V25.176ZM123.035 24.952C125.739 24.952 127.707 27 127.707 29.752C127.707 32.504 125.739 34.552 123.035 34.552C120.315 34.552 118.347 32.504 118.347 29.752C118.347 27 120.315 24.952 123.035 24.952ZM123.035 26.408C121.211 26.408 119.963 27.848 119.963 29.752C119.963 31.656 121.211 33.096 123.035 33.096C124.843 33.096 126.091 31.656 126.091 29.752C126.091 27.848 124.843 26.408 123.035 26.408ZM134.02 24.952C136.724 24.952 138.692 27 138.692 29.752C138.692 32.504 136.724 34.552 134.02 34.552C131.3 34.552 129.332 32.504 129.332 29.752C129.332 27 131.3 24.952 134.02 24.952ZM134.02 26.408C132.196 26.408 130.948 27.848 130.948 29.752C130.948 31.656 132.196 33.096 134.02 33.096C135.828 33.096 137.076 31.656 137.076 29.752C137.076 27.848 135.828 26.408 134.02 26.408ZM144.844 34.552C142.252 34.552 140.316 32.488 140.316 29.752C140.316 27.016 142.252 24.952 144.844 24.952C146.508 24.952 147.628 25.752 148.092 26.536V21.112H149.74V34.328H148.092V32.968C147.628 33.752 146.508 34.552 144.844 34.552ZM144.988 33.096C146.844 33.096 148.124 31.656 148.124 29.752C148.124 27.848 146.844 26.408 144.988 26.408C143.148 26.408 141.932 27.848 141.932 29.752C141.932 31.656 143.148 33.096 144.988 33.096ZM163.543 21H165.047V34.664H163.543V21ZM160.247 26.696V21.08H161.735V34.424H160.247V28.2H158.439C158.343 32.248 157.255 34.024 155.271 34.024C153.207 34.024 152.087 32.088 152.087 27.672C152.087 23.256 153.207 21.32 155.271 21.32C157.175 21.32 158.263 22.968 158.423 26.696H160.247ZM155.271 32.584C156.407 32.584 156.935 31.032 156.935 27.672C156.935 24.312 156.407 22.76 155.271 22.76C154.135 22.76 153.591 24.312 153.591 27.672C153.591 31.032 154.135 32.584 155.271 32.584ZM186.074 26.536V28.056H184.25V34.664H182.698V21H184.25V26.536H186.074ZM173.818 32.408H174.474C175.082 32.408 175.882 32.328 176.426 32.104V33.512C175.786 33.736 174.81 33.848 174.01 33.848H172.266V21.496H176.362V22.936H173.818V32.408ZM178.57 32.408H179.306C180.058 32.408 180.906 32.28 181.546 31.96V33.4C180.858 33.704 179.946 33.848 179.002 33.848H177.018V21.496H181.194V22.936H178.57V32.408ZM201.465 26.536V28.056H199.545V34.664H197.961V21H199.545V26.536H201.465ZM189.385 32.392H193.241C194.537 32.392 195.945 32.152 196.777 31.752V33.192C195.945 33.608 194.521 33.848 193.209 33.848H187.817V26.84H193.785V22.952H187.785V21.496H195.369V28.296H189.385V32.392Z" fill="black"/>
</svg>
