<svg width="348" height="115" viewBox="0 0 348 115" fill="none" xmlns="http://www.w3.org/2000/svg">
<g filter="url(#filter0_d_1_17)">
<line y1="-1" x2="83.9349" y2="-1" transform="matrix(0.95439 0.298564 -0.344305 0.938858 94.82 65.7248)" stroke="white" stroke-width="2"/>
<line y1="-1" x2="83.9349" y2="-1" transform="matrix(0.95439 -0.298564 -0.344305 -0.938858 173.967 89.0565)" stroke="white" stroke-width="2"/>
</g>
<g filter="url(#filter1_d_1_17)">
<path d="M34.9935 17H36.8735V34.08H34.9935V25.74H32.2135V33.78H30.3335V17.1H32.2135V23.88H34.9935V17ZM22.9135 31.3H25.1135C26.5735 31.3 28.0535 31.04 29.0935 30.64V32.4C28.0735 32.84 26.4335 33.06 24.8935 33.06H20.9735V17.58H22.9135V31.3ZM57.5518 23.92V25.82H55.1518V34.08H53.1718V17H55.1518V23.92H57.5518ZM40.3118 19.44V17.62H49.6118V21.74C49.6118 28.54 46.1118 33.02 40.3118 33.02V31.14C44.9518 31.12 47.5918 27.5 47.5918 21.78V19.44H40.3118ZM70.2355 23.38C69.0555 25.08 67.1355 26.3 64.7755 26.56V24.84C67.3755 24.46 69.0355 22.62 69.4355 20.24H64.9555V18.58H69.4755V16.7H71.4755V18.58H75.9355V20.24H71.4555C71.3755 20.8 71.2355 21.34 71.0355 21.86L76.2355 24.88L75.2955 26.38L70.2355 23.38ZM79.9955 20.78H82.3955V22.68H79.9955V26.88H78.0155V17H79.9955V20.78ZM74.2755 29.4C74.1355 29.78 73.9755 30.14 73.7755 30.46L80.6355 32.46L80.1155 34.1L72.6555 31.72C70.9355 33.16 68.2155 33.86 65.4755 33.86V32.2C68.4955 32.2 71.2555 31.16 72.1555 29.4H65.6755V27.82H80.2155V29.4H74.2755ZM92.1538 21.36H97.8738V17H99.8538V29.74H97.8738V23.06H92.1538V21.36ZM95.8738 26.54C94.7738 26.98 92.7338 27.2 90.3738 27.2H84.4738V17.42H94.6538V19.1H86.4738V25.5H90.4938C92.7738 25.5 94.7338 25.3 95.8738 24.84V26.54ZM87.3338 32.1H100.214V33.86H85.3138V28.68H87.3338V32.1ZM117.138 23.48C112.998 23.48 109.598 22.52 109.598 20.18C109.598 17.86 112.998 16.9 117.138 16.9C121.278 16.9 124.678 17.86 124.678 20.18C124.678 22.52 121.278 23.48 117.138 23.48ZM117.138 21.9C120.118 21.9 122.578 21.38 122.578 20.18C122.578 19 120.118 18.46 117.138 18.46C114.158 18.46 111.698 19 111.698 20.18C111.698 21.38 114.158 21.9 117.138 21.9ZM108.618 26.42V24.82H125.678V26.42H108.618ZM109.798 33.88V28.08H124.478V33.88H109.798ZM111.778 32.3H122.518V29.66H111.778V32.3ZM145.716 20.78V22.66H143.316V27.2H141.336V17H143.316V20.78H145.716ZM133.176 26.66C129.936 26.66 127.876 24.64 127.876 21.92C127.876 19.2 129.936 17.18 133.176 17.18C136.396 17.18 138.456 19.2 138.456 21.92C138.456 24.64 136.396 26.66 133.176 26.66ZM133.176 18.84C131.216 18.84 129.856 20.02 129.856 21.92C129.856 23.82 131.216 25 133.176 25C135.116 25 136.476 23.82 136.476 21.92C136.476 20.02 135.116 18.84 133.176 18.84ZM129.076 29.86V28.14H143.316V34.08H141.316V29.86H129.076ZM149.734 31.16L148.734 35.68H147.094L147.734 31.16H149.734ZM172.083 17H173.963V34.08H172.083V25.74H169.303V33.78H167.423V17.1H169.303V23.88H172.083V17ZM160.003 31.3H162.203C163.663 31.3 165.143 31.04 166.183 30.64V32.4C165.163 32.84 163.523 33.06 161.983 33.06H158.063V17.58H160.003V31.3ZM194.642 23.92V25.82H192.242V34.08H190.262V17H192.242V23.92H194.642ZM177.402 19.44V17.62H186.702V21.74C186.702 28.54 183.202 33.02 177.402 33.02V31.14C182.042 31.12 184.682 27.5 184.682 21.78V19.44H177.402ZM207.325 23.38C206.145 25.08 204.225 26.3 201.865 26.56V24.84C204.465 24.46 206.125 22.62 206.525 20.24H202.045V18.58H206.565V16.7H208.565V18.58H213.025V20.24H208.545C208.465 20.8 208.325 21.34 208.125 21.86L213.325 24.88L212.385 26.38L207.325 23.38ZM217.085 20.78H219.485V22.68H217.085V26.88H215.105V17H217.085V20.78ZM211.365 29.4C211.225 29.78 211.065 30.14 210.865 30.46L217.725 32.46L217.205 34.1L209.745 31.72C208.025 33.16 205.305 33.86 202.565 33.86V32.2C205.585 32.2 208.345 31.16 209.245 29.4H202.765V27.82H217.305V29.4H211.365ZM229.244 21.36H234.964V17H236.944V29.74H234.964V23.06H229.244V21.36ZM232.964 26.54C231.864 26.98 229.824 27.2 227.464 27.2H221.564V17.42H231.744V19.1H223.564V25.5H227.584C229.864 25.5 231.824 25.3 232.964 24.84V26.54ZM224.424 32.1H237.304V33.86H222.404V28.68H224.424V32.1ZM254.087 34.02C249.227 34.02 245.627 30.48 245.627 25.64C245.627 20.8 249.207 17.26 254.067 17.26C258.927 17.26 262.527 20.8 262.527 25.64C262.527 30.48 258.947 34.02 254.087 34.02ZM254.087 32.1C257.727 32.1 260.427 29.4 260.427 25.64C260.427 21.86 257.727 19.18 254.067 19.18C250.407 19.18 247.727 21.86 247.727 25.64C247.727 29.4 250.427 32.1 254.087 32.1ZM272.992 34.02C268.152 34.02 264.592 30.48 264.592 25.64C264.592 20.8 268.152 17.26 272.992 17.26C277.132 17.26 279.992 19.66 280.832 23.02H278.692C278.012 20.76 275.952 19.2 273.032 19.2C269.352 19.2 266.692 21.88 266.692 25.64C266.692 29.38 269.372 32.08 273.032 32.08C276.032 32.08 278.272 30.32 278.852 28.04H280.992C280.292 31.38 277.232 34.02 272.992 34.02ZM283.671 17.64H295.051V19.5H285.771V24.54H294.351V26.4H285.771V31.8H295.231V33.66H283.671V17.64ZM309.729 33.66L308.129 29.7H300.429L298.829 33.66H296.629L303.229 17.64H305.449L312.029 33.66H309.729ZM301.169 27.84H307.389L304.289 20.1L301.169 27.84ZM314.159 17.64H316.119L325.819 30.12V17.54H327.939V33.56H325.959L316.259 21.08V33.66H314.159V17.64Z" fill="white"/>
</g>
<defs>
<filter id="filter0_d_1_17" x="74.82" y="47.8471" width="199.943" height="67.0871" filterUnits="userSpaceOnUse" color-interpolation-filters="sRGB">
<feFlood flood-opacity="0" result="BackgroundImageFix"/>
<feColorMatrix in="SourceAlpha" type="matrix" values="0 0 0 0 0 0 0 0 0 0 0 0 0 0 0 0 0 0 127 0" result="hardAlpha"/>
<feOffset dy="4"/>
<feGaussianBlur stdDeviation="10"/>
<feComposite in2="hardAlpha" operator="out"/>
<feColorMatrix type="matrix" values="0 0 0 0 0 0 0 0 0 0 0 0 0 0 0 0 0 0 0.5 0"/>
<feBlend mode="normal" in2="BackgroundImageFix" result="effect1_dropShadow_1_17"/>
<feBlend mode="normal" in="SourceGraphic" in2="effect1_dropShadow_1_17" result="shape"/>
</filter>
<filter id="filter1_d_1_17" x="0.973511" y="0.700012" width="346.966" height="58.98" filterUnits="userSpaceOnUse" color-interpolation-filters="sRGB">
<feFlood flood-opacity="0" result="BackgroundImageFix"/>
<feColorMatrix in="SourceAlpha" type="matrix" values="0 0 0 0 0 0 0 0 0 0 0 0 0 0 0 0 0 0 127 0" result="hardAlpha"/>
<feOffset dy="4"/>
<feGaussianBlur stdDeviation="10"/>
<feComposite in2="hardAlpha" operator="out"/>
<feColorMatrix type="matrix" values="0 0 0 0 0 0 0 0 0 0 0 0 0 0 0 0 0 0 0.4 0"/>
<feBlend mode="normal" in2="BackgroundImageFix" result="effect1_dropShadow_1_17"/>
<feBlend mode="normal" in="SourceGraphic" in2="effect1_dropShadow_1_17" result="shape"/>
</filter>
</defs>
</svg>
