<svg width="558" height="93" viewBox="0 0 558 93" fill="none" xmlns="http://www.w3.org/2000/svg">
<g filter="url(#filter0_d_7_36)">
<path d="M36.6464 23.28V25.12H21.8464V17.2H23.8864V23.28H36.6464ZM37.7264 27.16V29.04H30.1864V34.48H28.1664V29.04H20.6664V27.16H37.7264ZM53.6847 25.2V19.26H41.0247V17.4H55.7447V25.2H53.6847ZM56.9647 26.62V28.5H49.3447V34.48H47.3047V28.5H39.9047V26.62H56.9647ZM77.003 23.92V25.82H74.603V34.08H72.623V17H74.603V23.92H77.003ZM61.963 31.22H66.723C68.343 31.22 70.103 30.92 71.143 30.44V32.24C70.103 32.76 68.323 33.06 66.683 33.06H59.943V17.52H61.963V31.22ZM99.8667 23.16L92.1267 21.12C90.3667 22.38 87.5467 23.02 84.8667 23.08V21.52C87.8067 21.44 91.1467 20.58 91.7867 18.74H85.1467V17.2H99.8667V18.74H93.8067C93.7267 19.14 93.5667 19.52 93.3467 19.88L100.327 21.64L99.8667 23.16ZM83.9867 24.16H101.047V25.7H83.9867V24.16ZM87.1067 31.2V32.4H100.167V33.88H85.1667V29.8H97.9267V28.6H85.1267V27.12H99.8667V31.2H87.1067ZM117.185 34.08V17H119.165V34.08H117.185ZM104.025 33.02V31.14C108.685 31.12 111.485 27.5 111.485 21.78V19.44H104.025V17.62H113.505V21.74C113.505 28.58 109.865 33.02 104.025 33.02ZM123.683 23.62V17H125.683V21.86H138.463V23.62H123.683ZM122.463 27.26V25.5H139.523V27.26H122.463ZM123.643 33.88V28.78H125.663V32.12H138.643V33.88H123.643ZM163.507 26.76V28.54H148.447V17.62H163.247V19.4H150.427V22.2H163.027V23.94H150.427V26.76H163.507ZM147.307 31.44H164.367V33.26H147.307V31.44ZM182.965 17V30.18H181.085V17H182.965ZM176.965 29.9V22.86H175.045V21.04H176.965V17.1H178.825V29.9H176.965ZM175.365 27.04C174.245 27.48 172.505 27.68 170.545 27.68H167.065V21.7H172.205V19.1H167.065V17.42H174.045V23.32H168.905V26H170.705C172.605 26 174.245 25.84 175.365 25.38V27.04ZM170.165 32.1H183.385V33.86H168.145V28.98H170.165V32.1ZM199.744 34.1V17H201.724V34.08L199.744 34.1ZM186.784 33.06V17.62H196.824V19.44H188.784V31.24H193.744C195.364 31.24 197.124 30.92 198.164 30.42V32.24C197.124 32.74 195.324 33.06 193.684 33.06H186.784ZM216.562 18.62V20.24H204.962V18.62H209.762V16.7H211.762V18.62H216.562ZM220.482 21.68H222.882V23.58H220.482V29.8H218.502V17H220.482V21.68ZM210.762 28.2C207.922 28.2 205.702 26.94 205.702 24.7C205.702 22.46 207.922 21.2 210.762 21.2C213.602 21.2 215.802 22.46 215.802 24.7C215.802 26.94 213.602 28.2 210.762 28.2ZM210.762 22.72C208.842 22.72 207.622 23.56 207.622 24.7C207.622 25.86 208.842 26.68 210.762 26.68C212.682 26.68 213.902 25.86 213.902 24.7C213.902 23.56 212.682 22.72 210.762 22.72ZM208.202 29.18V32.1H220.942V33.86H206.202V29.18H208.202ZM246.306 19.2V20.98H230.466V19.2H237.346V16.78H239.386V19.2H246.306ZM231.246 25.6C231.246 23.16 234.346 22.16 238.386 22.16C242.426 22.16 245.526 23.16 245.526 25.6C245.526 28.02 242.426 29.02 238.386 29.02C234.346 29.02 231.246 28.02 231.246 25.6ZM243.506 25.6C243.506 24.32 241.286 23.86 238.386 23.86C235.506 23.86 233.266 24.32 233.266 25.6C233.266 26.86 235.506 27.32 238.386 27.32C241.286 27.32 243.506 26.86 243.506 25.6ZM229.866 31.46H246.926V33.26H229.866V31.46ZM250.344 24.26V20.02H263.004V18.68H250.344V17.2H264.944V21.44H252.284V22.78H265.184V24.26H250.344ZM249.104 27.24V25.7H266.164V27.24H249.104ZM250.284 33.88V28.68H264.964V33.88H250.284ZM252.244 32.38H263.004V30.18H252.244V32.38ZM284.202 17.3V26.06H269.522V17.3H271.482V19.7H282.242V17.3H284.202ZM271.482 24.3H282.242V21.46H271.482V24.3ZM285.402 27.88V29.72H277.882V34.48H275.842V29.72H268.342V27.88H285.402ZM301.66 17H303.66V34.08H301.66V25.82H298.5V23.96H301.66V17ZM290.46 31.24H295.02C296.64 31.24 298.4 30.92 299.44 30.42V32.24C298.4 32.76 296.66 33.06 295.02 33.06H288.48V17.62H298.24V19.44H290.46V24.3H297.28V26.12H290.46V31.24ZM326.944 17H328.844V34.08H326.944V25.74H324.024V33.78H322.124V17.1H324.024V23.88H326.944V17ZM312.804 19.42V17.62H319.944V22.22C319.944 28.82 316.984 32.98 312.804 33.02V31.16C315.984 31.06 318.024 27.6 318.024 22.32V19.42H312.804ZM345.623 29.68V17H347.603V29.68H345.623ZM337.243 27.1C333.903 27.1 331.823 25 331.823 22.14C331.823 19.28 333.903 17.18 337.243 17.18C340.583 17.18 342.643 19.28 342.643 22.14C342.643 25 340.583 27.1 337.243 27.1ZM337.243 25.42C339.263 25.42 340.662 24.16 340.662 22.14C340.662 20.12 339.263 18.84 337.243 18.84C335.203 18.84 333.803 20.12 333.803 22.14C333.803 24.16 335.203 25.42 337.243 25.42ZM333.323 33.86V28.28H335.343V32.06H348.063V33.86H333.323ZM364.921 34.08V17H366.901V34.08H364.921ZM356.761 28.12C353.681 28.12 351.481 25.92 351.481 22.74C351.481 19.56 353.681 17.36 356.761 17.36C359.821 17.36 362.041 19.56 362.041 22.74C362.041 25.92 359.821 28.12 356.761 28.12ZM356.761 26.32C358.781 26.32 360.101 24.78 360.101 22.74C360.101 20.7 358.781 19.14 356.761 19.14C354.721 19.14 353.421 20.7 353.421 22.74C353.421 24.78 354.721 26.32 356.761 26.32ZM350.901 33.06V31.2H357.881C360.221 31.2 362.321 30.94 363.481 30.4V32.24C362.341 32.76 360.221 33.06 357.761 33.06H350.901ZM393.605 20.5V22.4H391.205V26.28H389.225V17H391.205V20.5H393.605ZM386.025 19.28C386.025 23.94 382.105 25.8 376.185 25.8V24.08C381.005 24.06 384.025 22.68 384.025 19.62V19.1H376.185V17.42H386.025V19.28ZM376.925 33.86V27.22H391.205V33.86H376.925ZM378.905 28.9V32.18H389.225V28.9H378.905ZM412.843 20.78V22.68H410.443V27.2H408.463V17H410.443V20.78H412.843ZM405.263 19.44C405.263 24.4 401.343 26.6 395.423 26.6V24.84C400.243 24.82 403.263 23.2 403.263 19.76V19.14H395.423V17.42H405.263V19.44ZM396.003 29.86V28.14H410.443V34.08H408.443V29.86H396.003ZM428.301 17H430.281V27.4H428.301V22.66H425.001V20.94H428.301V17ZM420.221 23.32C419.041 25.32 417.061 26.64 414.561 26.9V25.1C417.421 24.68 419.181 22.38 419.381 19.14H414.781V17.44H425.681V19.14H421.381C421.341 20.04 421.181 20.9 420.941 21.68L426.181 25.3L425.121 26.76L420.221 23.32ZM415.601 30.06V28.34H430.281V34.08H428.261V30.06H415.601ZM447.419 29.68V17H449.399V29.68H447.419ZM439.039 27.1C435.699 27.1 433.619 25 433.619 22.14C433.619 19.28 435.699 17.18 439.039 17.18C442.379 17.18 444.439 19.28 444.439 22.14C444.439 25 442.379 27.1 439.039 27.1ZM439.039 25.42C441.059 25.42 442.459 24.16 442.459 22.14C442.459 20.12 441.059 18.84 439.039 18.84C436.999 18.84 435.599 20.12 435.599 22.14C435.599 24.16 436.999 25.42 439.039 25.42ZM435.119 33.86V28.28H437.139V32.06H449.859V33.86H435.119ZM464.203 23.48C463.043 25.08 461.103 26.18 458.643 26.46V24.68C461.223 24.32 462.963 22.68 463.323 20.52H458.983V18.8H463.303V16.68H465.323V18.8H469.623V20.52H465.343C465.283 21.02 465.183 21.5 465.003 21.96L470.203 24.86L469.323 26.4L464.203 23.48ZM472.323 17H474.303V34.08H472.323V17ZM458.303 27.98H465.283C467.583 27.98 469.663 27.8 470.883 27.36V29.08C469.643 29.52 467.603 29.72 465.243 29.72H465.203V34.08H463.223V29.72H458.303V27.98ZM489.081 18.44V19.98H477.481V18.44H482.281V16.7H484.281V18.44H489.081ZM495.401 20.8H493.001V22.92H495.401V24.6H493.001V27.38H491.021V17H493.001V19.1H495.401V20.8ZM483.281 27.04C480.441 27.04 478.261 25.96 478.261 24C478.261 21.98 480.441 20.88 483.281 20.88C486.101 20.88 488.281 21.98 488.281 24C488.281 25.96 486.101 27.04 483.281 27.04ZM483.281 22.36C481.361 22.36 480.161 23.04 480.161 24C480.161 24.92 481.361 25.56 483.281 25.56C485.181 25.56 486.401 24.92 486.401 24C486.401 23.04 485.181 22.36 483.281 22.36ZM485.961 27.88C490.061 27.88 493.241 28.68 493.241 30.98C493.241 33.26 490.061 34.08 485.961 34.08C481.861 34.08 478.681 33.26 478.681 30.98C478.681 28.68 481.861 27.88 485.961 27.88ZM485.961 32.54C488.901 32.54 491.161 32.08 491.161 30.98C491.161 29.88 488.901 29.42 485.961 29.42C483.041 29.42 480.781 29.88 480.781 30.98C480.781 32.08 483.041 32.54 485.961 32.54ZM514.64 23.92V25.82H512.34V34.08H510.42V17H512.34V23.92H514.64ZM497.16 19.42V17.62H502.06V21.48C502.06 27.9 500.8 32.26 497.16 32.42V30.58C499.42 30.28 500.14 26.84 500.14 21.66V19.42H497.16ZM502.94 19.42V17.62H507.8V21.74C507.8 28.6 506.16 32.84 502.4 33.02V31.18C504.8 30.9 505.88 27.6 505.88 21.92V19.42H502.94ZM529.978 17H531.958V34.08H529.978V17ZM523.318 19.44C523.298 21.42 523.098 23.24 522.778 24.84L528.358 31.74L526.798 32.92L522.198 27.06C521.018 30.64 518.978 32.76 516.398 33.06V31.1C519.438 30.54 521.238 25.78 521.318 19.44H516.798V17.62H527.698V19.44H523.318ZM537.896 31.16L536.896 35.68H535.256L535.896 31.16H537.896Z" fill="white"/>
</g>
<g filter="url(#filter1_d_7_36)">
<path d="M36.46 55.112H48.556V57.704H21.26V55.112H33.324V52.136H22.828V49.608H27.66V43.848H23.116V41.32H46.668V43.848H42.124V49.608H46.956V52.136H36.46V55.112ZM30.828 43.848V49.608H38.956V43.848H30.828ZM22.924 62.952V60.36H46.636V68.36H43.436V62.952H22.924ZM74.6013 41H77.7693V54.504H74.6013V47.432H64.2333V44.776H74.6013V41ZM71.4013 52.68C69.6413 53.352 66.3773 53.672 62.6013 53.672H53.1613V41.512H56.3613V51.08H62.7933C66.4412 51.08 69.5773 50.792 71.4013 50.088V52.68ZM57.1613 63.176V65.512H65.8333V67.976H54.2493V60.808H62.6333V58.472H54.1853V56.008H65.5453V63.176H57.1613ZM74.8893 59.432V56.008H77.7693V67.976H67.0493V56.008H69.9613V59.432H74.8893ZM69.9613 65.544H74.8893V61.768H69.9613V65.544ZM106.055 41H109.095V68.328H106.055V41ZM99.2385 52.008V41.16H102.247V67.848H99.2385V55.016H94.3425C92.9665 62.248 88.8385 66.568 83.4305 66.632V63.656C88.5185 63.496 91.7825 57.96 91.7825 49.512V44.872H83.4305V41.992H94.8545V49.352C94.8545 50.28 94.8225 51.144 94.7585 52.008H99.2385ZM148.141 51.048V53.992H124.461V41.32H127.725V51.048H148.141ZM149.869 57.256V60.264H137.805V68.968H134.573V60.264H122.573V57.256H149.869ZM175.69 54.984V41H178.858V54.984H175.69ZM154.602 54.248V46.824H167.626V44.04H154.538V41.672H170.762V49.064H157.738V51.88H164.938C168.65 51.88 171.786 51.432 173.546 50.632V53.032C171.882 53.768 168.682 54.248 164.81 54.248H154.602ZM155.722 67.976V61.096H175.754V58.856H155.658V56.488H178.858V63.336H158.826V65.608H179.53V67.976H155.722ZM206.448 48.744C203.408 52.872 198.736 55.464 193.744 55.496V52.488C199.632 52.52 205.2 47.272 206.384 40.808L209.648 41.32C209.328 43.08 208.752 44.776 207.984 46.312L219.696 52.808L218.224 55.464L206.448 48.744ZM220.4 58.376V61.32H208.336V68.968H205.104V61.32H193.104V58.376H220.4ZM258.358 41V56.2H255.19V41H258.358ZM250.358 48.392C250.358 52.616 247.03 55.496 241.814 55.496C236.566 55.496 233.238 52.616 233.238 48.392C233.238 44.2 236.566 41.288 241.814 41.288C247.03 41.288 250.358 44.2 250.358 48.392ZM236.406 48.392C236.406 51.208 238.614 52.872 241.814 52.872C244.982 52.872 247.19 51.208 247.19 48.392C247.19 45.576 244.982 43.912 241.814 43.912C238.614 43.912 236.406 45.576 236.406 48.392ZM260.566 65.864L258.678 68.104L253.43 63.72C251.766 66.248 249.302 67.816 246.614 67.976L241.974 63.88C240.278 66.28 237.846 67.784 235.222 67.976V65.096C238.23 64.808 240.886 61.256 241.238 57.032L244.31 57.448C244.15 58.92 243.798 60.264 243.286 61.48L247.478 64.936C250.038 64.136 252.182 60.872 252.47 57.032L255.542 57.48C255.414 58.856 255.126 60.104 254.678 61.288L260.566 65.864ZM265.587 51.592V41H268.787V48.776H289.235V51.592H265.587ZM263.635 57.416V54.6H290.931V57.416H263.635ZM265.523 68.008V59.848H268.755V65.192H289.523V68.008H265.523ZM317.017 51.368C310.393 51.368 304.953 49.832 304.953 46.088C304.953 42.376 310.393 40.84 317.017 40.84C323.641 40.84 329.081 42.376 329.081 46.088C329.081 49.832 323.641 51.368 317.017 51.368ZM317.017 48.84C321.785 48.84 325.721 48.008 325.721 46.088C325.721 44.2 321.785 43.336 317.017 43.336C312.249 43.336 308.313 44.2 308.313 46.088C308.313 48.008 312.249 48.84 317.017 48.84ZM303.385 56.072V53.512H330.681V56.072H303.385ZM305.273 68.008V58.728H328.761V68.008H305.273ZM308.441 65.48H325.625V61.256H308.441V65.48ZM362.742 47.048V50.056H358.902V57.32H355.734V41H358.902V47.048H362.742ZM342.678 56.456C337.494 56.456 334.198 53.224 334.198 48.872C334.198 44.52 337.494 41.288 342.678 41.288C347.83 41.288 351.126 44.52 351.126 48.872C351.126 53.224 347.83 56.456 342.678 56.456ZM342.678 43.944C339.542 43.944 337.366 45.832 337.366 48.872C337.366 51.912 339.542 53.8 342.678 53.8C345.782 53.8 347.958 51.912 347.958 48.872C347.958 45.832 345.782 43.944 342.678 43.944ZM336.118 61.576V58.824H358.902V68.328H355.702V61.576H336.118ZM387.38 68.328V41H390.548V68.328H387.38ZM374.324 58.792C369.396 58.792 365.876 55.272 365.876 50.184C365.876 45.096 369.396 41.576 374.324 41.576C379.22 41.576 382.772 45.096 382.772 50.184C382.772 55.272 379.22 58.792 374.324 58.792ZM374.324 55.912C377.556 55.912 379.668 53.448 379.668 50.184C379.668 46.92 377.556 44.424 374.324 44.424C371.06 44.424 368.98 46.92 368.98 50.184C368.98 53.448 371.06 55.912 374.324 55.912ZM364.948 66.696V63.72H376.116C379.86 63.72 383.22 63.304 385.076 62.44V65.384C383.252 66.216 379.86 66.696 375.924 66.696H364.948ZM418.106 68.232C410.33 68.232 404.57 62.568 404.57 54.824C404.57 47.08 410.298 41.416 418.074 41.416C425.85 41.416 431.61 47.08 431.61 54.824C431.61 62.568 425.882 68.232 418.106 68.232ZM418.106 65.16C423.93 65.16 428.25 60.84 428.25 54.824C428.25 48.776 423.93 44.488 418.074 44.488C412.218 44.488 407.93 48.776 407.93 54.824C407.93 60.84 412.25 65.16 418.106 65.16ZM448.353 68.232C440.609 68.232 434.913 62.568 434.913 54.824C434.913 47.08 440.609 41.416 448.353 41.416C454.977 41.416 459.553 45.256 460.897 50.632H457.473C456.385 47.016 453.089 44.52 448.417 44.52C442.529 44.52 438.273 48.808 438.273 54.824C438.273 60.808 442.561 65.128 448.417 65.128C453.217 65.128 456.801 62.312 457.729 58.664H461.153C460.033 64.008 455.137 68.232 448.353 68.232ZM465.44 42.024H483.648V45H468.8V53.064H482.528V56.04H468.8V64.68H483.936V67.656H465.44V42.024ZM507.132 67.656L504.572 61.32H492.252L489.692 67.656H486.172L496.732 42.024H500.284L510.812 67.656H507.132ZM493.436 58.344H503.388L498.428 45.96L493.436 58.344ZM514.221 42.024H517.357L532.877 61.992V41.864H536.269V67.496H533.101L517.581 47.528V67.656H514.221V42.024Z" fill="white"/>
</g>
<defs>
<filter id="filter0_d_7_36" x="0.666412" y="0.68" width="557.23" height="59" filterUnits="userSpaceOnUse" color-interpolation-filters="sRGB">
<feFlood flood-opacity="0" result="BackgroundImageFix"/>
<feColorMatrix in="SourceAlpha" type="matrix" values="0 0 0 0 0 0 0 0 0 0 0 0 0 0 0 0 0 0 127 0" result="hardAlpha"/>
<feOffset dy="4"/>
<feGaussianBlur stdDeviation="10"/>
<feComposite in2="hardAlpha" operator="out"/>
<feColorMatrix type="matrix" values="0 0 0 0 0 0 0 0 0 0 0 0 0 0 0 0 0 0 0.4 0"/>
<feBlend mode="normal" in2="BackgroundImageFix" result="effect1_dropShadow_7_36"/>
<feBlend mode="normal" in="SourceGraphic" in2="effect1_dropShadow_7_36" result="shape"/>
</filter>
<filter id="filter1_d_7_36" x="1.26001" y="24.808" width="555.009" height="68.16" filterUnits="userSpaceOnUse" color-interpolation-filters="sRGB">
<feFlood flood-opacity="0" result="BackgroundImageFix"/>
<feColorMatrix in="SourceAlpha" type="matrix" values="0 0 0 0 0 0 0 0 0 0 0 0 0 0 0 0 0 0 127 0" result="hardAlpha"/>
<feOffset dy="4"/>
<feGaussianBlur stdDeviation="10"/>
<feComposite in2="hardAlpha" operator="out"/>
<feColorMatrix type="matrix" values="0 0 0 0 0 0 0 0 0 0 0 0 0 0 0 0 0 0 0.4 0"/>
<feBlend mode="normal" in2="BackgroundImageFix" result="effect1_dropShadow_7_36"/>
<feBlend mode="normal" in="SourceGraphic" in2="effect1_dropShadow_7_36" result="shape"/>
</filter>
</defs>
</svg>
