<svg width="456" height="94" viewBox="0 0 456 94" fill="none" xmlns="http://www.w3.org/2000/svg">
<path d="M339.272 85.344V86.674H337.592V92.456H336.206V80.5H337.592V85.344H339.272ZM327.204 82.208V80.934H333.714V83.818C333.714 88.578 331.264 91.714 327.204 91.714V90.398C330.452 90.384 332.3 87.85 332.3 83.846V82.208H327.204ZM346.901 86.842H352.179V88.018H340.237V86.842H345.501V85.582C342.925 85.456 340.895 84.644 340.895 83.006C340.895 81.242 343.303 80.43 346.201 80.43C349.099 80.43 351.507 81.242 351.507 83.006C351.507 84.644 349.477 85.456 346.901 85.582V86.842ZM342.365 83.006C342.365 83.986 344.115 84.476 346.201 84.476C348.287 84.476 350.037 83.986 350.037 83.006C350.037 82.04 348.287 81.55 346.201 81.55C344.115 81.55 342.365 82.04 342.365 83.006ZM342.477 88.942V91.126H351.563V92.316H341.063V88.942H342.477ZM364.806 80.85V86.604H354.53V80.85H364.806ZM363.42 85.344V82.124H355.916V85.344H363.42ZM365.646 88.046V89.348H362.692V92.736H361.32V89.348H358.016V92.736H356.644V89.348H353.704V88.046H365.646ZM376.942 80.5H378.328V87.64H376.942V80.5ZM371.468 84.826C370.628 86.198 369.228 87.108 367.464 87.29V86.03C369.48 85.736 370.754 84.182 370.894 81.998H367.618V80.808H375.36V81.998H372.28C372.266 82.6 372.154 83.16 371.986 83.692L375.71 86.156L374.968 87.192L371.468 84.826ZM368.08 89.502V88.298H378.328V92.456H376.928V89.502H368.08ZM385.593 83.636C385.551 84.616 385.439 85.54 385.271 86.366L389.051 90.832L388.043 91.728L384.837 87.864C384.011 90.16 382.569 91.532 380.777 91.742V90.384C382.793 90.02 384.039 87.262 384.193 83.636H380.987V82.348H384.193V80.388H385.607V82.348H388.659V83.636H385.593ZM393.139 85.344V86.674H391.459V92.456H390.073V80.5H391.459V85.344H393.139ZM405.444 87.332V88.578H394.902V80.934H405.262V82.18H396.288V84.14H405.108V85.358H396.288V87.332H405.444ZM394.104 90.608H406.046V91.882H394.104V90.608ZM422.317 83.384H423.997V84.714H422.317V89.376H420.931V80.5H422.317V83.384ZM418.901 80.71V87.444H411.915V80.71H413.273V82.796H417.543V80.71H418.901ZM413.273 86.254H417.543V83.972H413.273V86.254ZM413.721 88.48V91.042H422.639V92.302H412.321V88.48H413.721ZM432.843 84.532H434.845V82.754H432.843L432.759 81.564H434.845V80.5H436.217V87.108H434.845V85.722H432.759L432.843 84.532ZM432.437 83.664C432.437 85.47 431.023 86.702 428.755 86.702C426.501 86.702 425.087 85.47 425.087 83.664C425.087 81.872 426.501 80.626 428.755 80.626C431.023 80.626 432.437 81.872 432.437 83.664ZM426.459 83.664C426.459 84.854 427.383 85.54 428.755 85.54C430.127 85.54 431.051 84.854 431.051 83.664C431.051 82.474 430.127 81.788 428.755 81.788C427.383 81.788 426.459 82.474 426.459 83.664ZM431.219 87.5C434.075 87.5 436.329 88.186 436.329 89.978C436.329 91.77 434.075 92.456 431.219 92.456C428.363 92.456 426.123 91.77 426.123 89.978C426.123 88.186 428.363 87.5 431.219 87.5ZM431.219 91.308C433.235 91.308 434.845 90.902 434.845 89.978C434.845 89.068 433.235 88.648 431.219 88.648C429.203 88.648 427.593 89.068 427.593 89.978C427.593 90.902 429.203 91.308 431.219 91.308ZM448.218 92.414C444.816 92.414 442.296 89.936 442.296 86.548C442.296 83.16 444.802 80.682 448.204 80.682C451.606 80.682 454.126 83.16 454.126 86.548C454.126 89.936 451.62 92.414 448.218 92.414ZM448.218 91.07C450.766 91.07 452.656 89.18 452.656 86.548C452.656 83.902 450.766 82.026 448.204 82.026C445.642 82.026 443.766 83.902 443.766 86.548C443.766 89.18 445.656 91.07 448.218 91.07Z" fill="white"/>
<path d="M265.029 24.392V6.428H241.989V3.08H268.773V24.392H265.029ZM240.117 31.268V27.92H270.825V31.268H240.117ZM276.942 12.188V2.36H303.258V5.096H280.506V9.452H303.618V12.188H276.942ZM274.746 17.588V14.816H305.454V17.588H274.746ZM276.87 32.384V25.04H299.838V22.88H276.798V20.216H303.33V27.56H280.362V29.72H303.87V32.384H276.87ZM334.611 32.744V2H338.175V32.744H334.611ZM319.923 22.016C314.379 22.016 310.419 18.056 310.419 12.332C310.419 6.608 314.379 2.648 319.923 2.648C325.431 2.648 329.427 6.608 329.427 12.332C329.427 18.056 325.431 22.016 319.923 22.016ZM319.923 18.776C323.559 18.776 325.935 16.004 325.935 12.332C325.935 8.66 323.559 5.852 319.923 5.852C316.251 5.852 313.911 8.66 313.911 12.332C313.911 16.004 316.251 18.776 319.923 18.776ZM309.375 30.908V27.56H321.939C326.151 27.56 329.931 27.092 332.019 26.12V29.432C329.967 30.368 326.151 30.908 321.723 30.908H309.375ZM386.241 14.456V17.876H381.921V32.744H378.357V2H381.921V14.456H386.241ZM355.209 6.392V3.116H371.949V10.532C371.949 22.772 365.649 30.836 355.209 30.836V27.452C363.561 27.416 368.313 20.9 368.313 10.604V6.392H355.209ZM401.898 10.064C401.79 12.584 401.502 14.888 401.034 17.012L410.934 28.568L408.342 30.872L399.954 20.864C397.794 26.804 394.05 30.368 389.37 30.908V27.416C394.59 26.48 397.866 19.388 398.298 10.064H389.91V6.752H398.298V1.712H401.934V6.752H409.926V10.064H401.898ZM413.85 2H417.414V32.744H413.85V2ZM425.583 13.916V6.968H448.407V4.88H425.583V2.36H451.863V9.344H429.039V11.396H452.295V13.916H425.583ZM423.351 18.74V16.148H454.059V18.74H423.351ZM425.475 32.384V25.472H448.479V23.492H425.403V20.972H451.935V27.848H428.931V29.864H452.475V32.384H425.475ZM30.8378 49.304V52.616H4.19775V38.36H7.86975V49.304H30.8378ZM32.7818 56.288V59.672H19.2098V69.464H15.5738V59.672H2.07375V56.288H32.7818ZM61.5067 52.76V42.068H38.7187V38.72H65.2147V52.76H61.5067ZM67.4107 55.316V58.7H53.6947V69.464H50.0227V58.7H36.7027V55.316H67.4107ZM88.4676 63.92H102.04V67.268H71.3316V63.92H84.8316V57.008H73.3476V38.9H76.8756V44.408H96.4596V38.9H99.9876V57.008H88.4676V63.92ZM76.8756 47.612V53.804H96.4596V47.612H76.8756ZM138.108 50.456V53.876H133.788V68.744H130.224V38H133.788V50.456H138.108ZM111.036 63.668H119.604C122.52 63.668 125.688 63.092 127.56 62.192V65.432C125.688 66.368 122.376 66.908 119.424 66.908H107.4V39.116H125.148V42.356H111.036V63.668ZM169.687 48.62V55.388H151.975V38.756H169.687V45.272H176.059V38H179.623V60.86H176.059V48.62H169.687ZM166.159 52.292V41.852H155.503V52.292H166.159ZM157.051 65.144H180.271V68.348H153.451V58.376H157.051V65.144ZM210.688 38H214.252V68.744H210.688V52.868H203.128V49.52H210.688V38ZM197.98 42.392C197.944 45.92 197.62 49.124 197.08 51.968L207.088 64.568L204.244 66.62L196.036 56.036C193.984 62.516 190.348 66.368 185.668 66.908V63.38C191.104 62.372 194.272 53.804 194.38 42.392H186.388V39.116H205.828V42.392H197.98ZM245.003 48.116C241.547 53.408 236.327 56.828 230.639 56.828V53.444C237.299 53.444 243.419 46.64 245.003 38.144L248.675 38.792C248.243 41.096 247.523 43.292 246.587 45.272L260.051 54.092L258.107 56.936L245.003 48.116ZM247.163 63.92H260.735V67.268H230.027V63.92H243.527V55.316H247.163V63.92ZM292.484 43.868H296.804V47.252H292.484V54.992H288.92V38H292.484V43.868ZM275.42 48.116C273.332 51.536 269.696 53.912 265.088 54.38V51.176C270.164 50.492 273.296 46.748 273.764 41.852H265.484V38.792H285.104V41.852H277.328C277.256 43.04 277.04 44.192 276.716 45.272L286.076 51.032L284.312 53.696L275.42 48.116ZM279.776 56C287.156 56 292.952 57.764 292.952 62.372C292.952 66.98 287.156 68.744 279.776 68.744C272.432 68.744 266.6 66.98 266.6 62.372C266.6 57.764 272.432 56 279.776 56ZM279.776 65.792C285.032 65.792 289.136 64.748 289.136 62.372C289.136 60.032 285.032 58.952 279.776 58.952C274.556 58.952 270.416 60.032 270.416 62.372C270.416 64.748 274.556 65.792 279.776 65.792ZM320.057 40.232V42.896H299.177V40.232H307.817V37.46H311.417V40.232H320.057ZM327.113 44.408H331.433V47.468H327.113V54.056H323.549V38H327.113V44.408ZM309.617 53.948C304.541 53.948 300.581 52.292 300.581 49.196C300.581 46.1 304.541 44.444 309.617 44.444C314.657 44.444 318.617 46.1 318.617 49.196C318.617 52.292 314.657 53.948 309.617 53.948ZM309.617 46.964C306.161 46.964 304.001 47.864 304.001 49.196C304.001 50.528 306.161 51.428 309.617 51.428C313.037 51.428 315.233 50.528 315.233 49.196C315.233 47.864 313.037 46.964 309.617 46.964ZM304.937 63.272V65.72H327.869V68.348H301.445V60.752H323.621V58.34H301.373V55.712H327.113V63.272H304.937ZM359.015 46.712C355.595 51.356 350.339 54.272 344.723 54.308V50.924C351.347 50.96 357.611 45.056 358.943 37.784L362.615 38.36C362.255 40.34 361.607 42.248 360.743 43.976L373.919 51.284L372.263 54.272L359.015 46.712ZM374.711 57.548V60.86H361.139V69.464H357.503V60.86H344.003V57.548H374.711ZM417.414 38V55.1H413.85V38H417.414ZM408.414 46.316C408.414 51.068 404.67 54.308 398.802 54.308C392.898 54.308 389.154 51.068 389.154 46.316C389.154 41.6 392.898 38.324 398.802 38.324C404.67 38.324 408.414 41.6 408.414 46.316ZM392.718 46.316C392.718 49.484 395.202 51.356 398.802 51.356C402.366 51.356 404.85 49.484 404.85 46.316C404.85 43.148 402.366 41.276 398.802 41.276C395.202 41.276 392.718 43.148 392.718 46.316ZM419.898 65.972L417.774 68.492L411.87 63.56C409.998 66.404 407.226 68.168 404.202 68.348L398.982 63.74C397.074 66.44 394.338 68.132 391.386 68.348V65.108C394.77 64.784 397.758 60.788 398.154 56.036L401.61 56.504C401.43 58.16 401.034 59.672 400.458 61.04L405.174 64.928C408.054 64.028 410.466 60.356 410.79 56.036L414.246 56.54C414.102 58.088 413.778 59.492 413.274 60.824L419.898 65.972ZM425.547 49.916V38H429.147V46.748H452.151V49.916H425.547ZM423.351 56.468V53.3H454.059V56.468H423.351ZM425.475 68.384V59.204H429.111V65.216H452.475V68.384H425.475Z" fill="white"/>
</svg>
