<svg width="516" height="110" viewBox="0 0 516 110" fill="none" xmlns="http://www.w3.org/2000/svg">
<path d="M28.152 40H31.536V70.744H28.152V55.732H23.148V70.204H19.764V40.18H23.148V52.384H28.152V40ZM6.408 65.74H10.368C12.996 65.74 15.66 65.272 17.532 64.552V67.72C15.696 68.512 12.744 68.908 9.972 68.908H2.916V41.044H6.408V65.74ZM68.7569 52.456V55.876H64.4369V70.744H60.8729V40H64.4369V52.456H68.7569ZM37.7249 44.392V41.116H54.4649V48.532C54.4649 60.772 48.1649 68.836 37.7249 68.836V65.452C46.0769 65.416 50.8289 58.9 50.8289 48.604V44.392H37.7249ZM113.476 52.456V55.876H109.156V70.744H105.592V40H109.156V52.456H113.476ZM96.3397 51.484V40.9H99.8677V68.908H82.7677V40.9H86.2957V51.484H96.3397ZM86.2957 65.632H96.3397V54.76H86.2957V65.632ZM148.105 52.456V55.876H143.785V70.744H140.221V40H143.785V52.456H148.105ZM120.925 65.632H129.601C132.517 65.632 135.685 65.092 137.557 64.192V67.432C135.685 68.368 132.481 68.908 129.529 68.908H117.397V53.14H130.825V44.392H117.325V41.116H134.389V56.416H120.925V65.632ZM165.669 47.848H175.965V40H179.529V62.932H175.965V50.908H165.669V47.848ZM172.365 57.172C170.385 57.964 166.713 58.36 162.465 58.36H151.845V40.756H170.169V43.78H155.445V55.3H162.681C166.785 55.3 170.313 54.94 172.365 54.112V57.172ZM156.993 67.18H180.177V70.348H153.357V61.024H156.993V67.18ZM227.452 52.456V55.876H223.132V70.744H219.568V40H223.132V52.456H227.452ZM205.456 40.72C210.82 40.72 214.6 45.256 214.6 55.012C214.6 64.768 210.82 69.304 205.456 69.304C200.056 69.304 196.276 64.768 196.276 55.012C196.276 45.256 200.056 40.72 205.456 40.72ZM205.456 66.028C208.624 66.028 211.036 62.824 211.036 55.012C211.036 47.236 208.624 43.996 205.456 43.996C202.252 43.996 199.84 47.236 199.84 55.012C199.84 62.824 202.252 66.028 205.456 66.028ZM255.061 40H258.625V70.744H255.061V40ZM235.261 65.632H244.225C247.141 65.632 250.309 65.056 252.181 64.156V67.432C250.309 68.368 247.177 68.908 244.225 68.908H231.697V41.116H249.769V44.392H235.261V53.14H249.229V56.416H235.261V65.632ZM279.502 50.332C276.046 55.768 270.826 59.332 265.174 59.332V55.948C271.834 55.948 277.954 48.748 279.538 40.144L283.21 40.792C282.778 43.168 282.058 45.436 281.05 47.488L294.586 56.596L292.642 59.44L279.502 50.332ZM264.562 65.92H295.27V69.268H264.562V65.92ZM328.351 57.568V60.772H301.243V41.116H327.883V44.32H304.807V49.36H327.487V52.492H304.807V57.568H328.351ZM299.191 65.992H329.899V69.268H299.191V65.992ZM359.056 70.744V40H362.62V70.744H359.056ZM344.368 60.016C338.824 60.016 334.864 56.056 334.864 50.332C334.864 44.608 338.824 40.648 344.368 40.648C349.876 40.648 353.872 44.608 353.872 50.332C353.872 56.056 349.876 60.016 344.368 60.016ZM344.368 56.776C348.004 56.776 350.38 54.004 350.38 50.332C350.38 46.66 348.004 43.852 344.368 43.852C340.696 43.852 338.356 46.66 338.356 50.332C338.356 54.004 340.696 56.776 344.368 56.776ZM333.82 68.908V65.56H346.384C350.596 65.56 354.376 65.092 356.464 64.12V67.432C354.412 68.368 350.596 68.908 346.168 68.908H333.82ZM393.875 51.664C386.423 51.664 380.303 49.936 380.303 45.724C380.303 41.548 386.423 39.82 393.875 39.82C401.327 39.82 407.447 41.548 407.447 45.724C407.447 49.936 401.327 51.664 393.875 51.664ZM393.875 48.82C399.239 48.82 403.667 47.884 403.667 45.724C403.667 43.6 399.239 42.628 393.875 42.628C388.511 42.628 384.083 43.6 384.083 45.724C384.083 47.884 388.511 48.82 393.875 48.82ZM378.539 56.956V54.076H409.247V56.956H378.539ZM380.663 70.384V59.944H407.087V70.384H380.663ZM384.227 67.54H403.559V62.788H384.227V67.54ZM445.316 46.804V50.188H440.996V58.36H437.432V40H440.996V46.804H445.316ZM422.744 57.388C416.912 57.388 413.204 53.752 413.204 48.856C413.204 43.96 416.912 40.324 422.744 40.324C428.54 40.324 432.248 43.96 432.248 48.856C432.248 53.752 428.54 57.388 422.744 57.388ZM422.744 43.312C419.216 43.312 416.768 45.436 416.768 48.856C416.768 52.276 419.216 54.4 422.744 54.4C426.236 54.4 428.684 52.276 428.684 48.856C428.684 45.436 426.236 43.312 422.744 43.312ZM415.364 63.148V60.052H440.996V70.744H437.396V63.148H415.364ZM464.932 65.956H478.504V69.268H447.796V65.956H461.296V58.504H449.812V41.116H476.488V44.428H453.448V55.192H476.848V58.504H464.932V65.956ZM21.24 86.692C20.628 91.084 17.136 94.18 11.772 94.18C5.832 94.18 2.16 90.4 2.16 85.252C2.16 80.104 5.832 76.324 11.772 76.324C16.956 76.324 20.376 79.204 21.168 83.344H27.36V76H30.924V98.86H27.36V86.692H21.24ZM5.724 85.252C5.724 88.888 8.136 91.156 11.772 91.156C15.372 91.156 17.784 88.888 17.784 85.252C17.784 81.616 15.372 79.312 11.772 79.312C8.136 79.312 5.724 81.616 5.724 85.252ZM8.712 103.144H31.572V106.348H5.112V96.304H8.712V103.144ZM62.7809 76H66.1649V106.744H62.7809V76ZM54.8249 87.7V76.18H58.2089V106.204H54.8249V91.048H49.9649V87.7H54.8249ZM46.4369 80.356C46.4009 83.812 46.2209 86.908 45.8969 89.644L53.3849 102.82L50.4689 104.476L44.9969 94.54C43.4849 100.768 40.7849 104.224 36.8609 104.908V101.416C40.9289 100.3 42.9449 92.164 43.0169 80.356H37.3649V77.116H51.8369V80.356H46.4369ZM106.708 76H110.272V106.744H106.708V92.092H100.804C100.516 101.092 96.8077 105.304 91.6597 105.304C86.2597 105.304 82.4797 100.768 82.4797 91.012C82.4797 81.256 86.2597 76.72 91.6597 76.72C96.5917 76.72 100.192 80.536 100.732 88.744H106.708V76ZM91.6597 102.028C94.8277 102.028 97.2397 98.824 97.2397 91.012C97.2397 83.236 94.8277 79.996 91.6597 79.996C88.4557 79.996 86.0437 83.236 86.0437 91.012C86.0437 98.824 88.4557 102.028 91.6597 102.028ZM141.085 106.78V76H144.649V106.744L141.085 106.78ZM117.757 104.908V77.116H135.829V80.392H121.357V101.632H130.285C133.201 101.632 136.369 101.056 138.241 100.156V103.432C136.369 104.332 133.129 104.908 130.177 104.908H117.757ZM175.965 76H179.529V106.744H175.965V90.472H168.045V87.124H175.965V76ZM163.437 76.9C163.437 81.112 163.113 84.928 162.537 88.348L172.149 103.036L169.161 104.98L161.493 92.884C159.405 100.156 155.697 104.512 150.837 104.908V101.272C156.741 100.3 159.765 89.68 159.801 76.756L163.437 76.9ZM187.41 88.6V76.36H213.726V79.348H191.01V85.648H214.086V88.6H187.41ZM185.214 94.936V91.912H215.922V94.936H185.214ZM187.338 106.384V97.384H190.974V103.324H214.338V106.384H187.338ZM244.873 86.332C241.417 91.768 236.197 95.332 230.545 95.332V91.948C237.205 91.948 243.325 84.748 244.909 76.144L248.581 76.792C248.149 79.168 247.429 81.436 246.421 83.488L259.957 92.596L258.013 95.44L244.873 86.332ZM229.933 101.92H260.641V105.268H229.933V101.92ZM293.722 93.568V96.772H266.614V77.116H293.254V80.32H270.178V85.36H292.858V88.492H270.178V93.568H293.722ZM264.562 101.992H295.27V105.268H264.562V101.992ZM324.319 106.744V76H327.883V106.744H324.319ZM300.955 104.908V89.14H314.707V80.392H300.883V77.116H318.271V92.416H304.519V101.632H313.519C316.435 101.632 319.603 101.056 321.475 100.156V103.432C319.603 104.368 316.399 104.908 313.411 104.908H300.955ZM358.948 92.992V76H362.512V92.992H358.948ZM335.224 91.228V76.756H353.512V91.228H335.224ZM338.752 88.204H349.984V79.78H338.752V88.204ZM349.624 106.744C342.172 106.744 336.268 104.98 336.268 100.372C336.268 95.764 342.172 94 349.624 94C357.076 94 362.98 95.764 362.98 100.372C362.98 104.98 357.076 106.744 349.624 106.744ZM349.624 103.792C354.952 103.792 359.164 102.748 359.164 100.372C359.164 98.032 354.952 96.952 349.624 96.952C344.332 96.952 340.084 98.032 340.084 100.372C340.084 102.748 344.332 103.792 349.624 103.792ZM410.687 88.456V91.876H406.367V106.744H402.803V76H406.367V88.456H410.687ZM379.655 80.392V77.116H396.395V84.532C396.395 96.772 390.095 104.836 379.655 104.836V101.452C388.007 101.416 392.759 94.9 392.759 84.604V80.392H379.655ZM415.364 86.836V76H418.964V83.956H442.04V86.836H415.364ZM413.168 92.776V89.896H443.876V92.776H413.168ZM428.504 106.816C421.16 106.816 415.004 105.376 415.004 101.164C415.004 96.952 421.16 95.548 428.504 95.548C435.848 95.548 442.004 96.952 442.004 101.164C442.004 105.376 435.848 106.816 428.504 106.816ZM428.504 104.008C433.472 104.008 438.26 103.288 438.26 101.164C438.26 99.076 433.472 98.356 428.504 98.356C423.536 98.356 418.748 99.076 418.748 101.164C418.748 103.288 423.536 104.008 428.504 104.008ZM460.252 75.928V80.86H468.424V84.028H448.48V80.86H456.616V75.928H460.252ZM479.944 88.456V91.876H475.624V106.744H472.06V76H475.624V88.456H479.944ZM458.452 86.476C463.456 86.476 466.984 90.22 466.984 95.872C466.984 101.524 463.456 105.268 458.452 105.268C453.448 105.268 449.884 101.524 449.884 95.872C449.884 90.22 453.448 86.476 458.452 86.476ZM458.452 102.172C461.296 102.172 463.528 99.796 463.528 95.872C463.528 91.948 461.296 89.572 458.452 89.572C455.572 89.572 453.34 91.948 453.34 95.872C453.34 99.796 455.572 102.172 458.452 102.172ZM507.805 76H511.369V106.744H507.805V97.348H502.585V94H507.805V86.908H502.585V83.56H507.805V76ZM484.045 104.908V77.116H500.893V104.908H484.045ZM487.573 80.428V101.596H497.365V80.428H487.573Z" fill="white"/>
<path d="M6.58 4.518C5.236 6.632 3.206 8.018 1.008 8.018V6.702C3.598 6.702 5.978 3.902 6.594 0.555999L8.022 0.807999C7.854 1.732 7.574 2.614 7.182 3.412L12.446 6.954L11.69 8.06L6.58 4.518ZM0.77 10.58H12.712V11.882H0.77V10.58ZM25.5768 7.332V8.578H15.0348V0.933999H25.3948V2.18H16.4208V4.14H25.2408V5.358H16.4208V7.332H25.5768ZM14.2368 10.608H26.1788V11.882H14.2368V10.608ZM37.4756 12.456V0.499999H38.8616V12.456H37.4756ZM28.3896 11.742V5.61H33.7376V2.208H28.3616V0.933999H35.1236V6.884H29.7756V10.468H33.2756C34.4096 10.468 35.6416 10.244 36.3696 9.894V11.168C35.6416 11.532 34.3956 11.742 33.2336 11.742H28.3896ZM50.9424 7.108V0.499999H52.3284V7.108H50.9424ZM41.7164 6.422V0.794H48.8284V6.422H41.7164ZM43.0884 5.246H47.4564V1.97H43.0884V5.246ZM47.3164 12.456C44.4184 12.456 42.1224 11.77 42.1224 9.978C42.1224 8.186 44.4184 7.5 47.3164 7.5C50.2144 7.5 52.5104 8.186 52.5104 9.978C52.5104 11.77 50.2144 12.456 47.3164 12.456ZM47.3164 11.308C49.3884 11.308 51.0264 10.902 51.0264 9.978C51.0264 9.068 49.3884 8.648 47.3164 8.648C45.2584 8.648 43.6064 9.068 43.6064 9.978C43.6064 10.902 45.2584 11.308 47.3164 11.308ZM68.431 0.499999H69.817V12.456H68.431V6.128H65.351V4.826H68.431V0.499999ZM63.559 0.85C63.559 2.488 63.433 3.972 63.209 5.302L66.947 11.014L65.785 11.77L62.803 7.066C61.991 9.894 60.549 11.588 58.659 11.742V10.328C60.955 9.95 62.131 5.82 62.145 0.794L63.559 0.85ZM81.7998 0.499999H83.1858V12.456H81.7998V0.499999ZM78.1178 4.966V0.85H79.4898V11.742H72.7138V0.85H74.0858V4.966H78.1178ZM74.0858 10.468H78.1178V6.24H74.0858V10.468ZM91.3046 4.518C89.9606 6.632 87.9306 8.018 85.7326 8.018V6.702C88.3226 6.702 90.7026 3.902 91.3186 0.555999L92.7466 0.807999C92.5786 1.732 92.2986 2.614 91.9066 3.412L97.1706 6.954L96.4146 8.06L91.3046 4.518ZM85.4946 10.58H97.4366V11.882H85.4946V10.58ZM99.8154 5.134V0.499999H101.215V3.902H110.161V5.134H99.8154ZM98.9614 7.682V6.45H110.903V7.682H98.9614ZM99.7874 12.316V8.746H101.201V11.084H110.287V12.316H99.7874ZM126.53 0.499999H127.846V12.456H126.53V6.632H124.584V12.246H123.268V0.569999H124.584V5.316H126.53V0.499999ZM116.716 11.742V0.933999H121.84V11.742H116.716ZM118.032 2.194V10.482H120.538V2.194H118.032ZM140.641 2.642H142.321V3.916H140.641V6.352H139.255V0.499999H140.641V2.642ZM138.387 5.386C137.659 5.722 136.231 5.918 134.537 5.918H130.239V0.794H137.533V1.97H131.625V4.756H134.621C136.245 4.756 137.617 4.56 138.387 4.238V5.386ZM132.031 10.174V11.21H140.935V12.302H130.659V9.138H139.269V8.102H130.631V7.01H140.641V10.174H132.031ZM156.855 6.24V2.082H147.993V0.78H158.297V6.24H156.855ZM159.151 7.234V8.55H153.817V12.736H152.389V8.55H147.209V7.234H159.151ZM167.326 6.408H172.618V7.556H160.676V6.408H165.954V5.12H161.53V0.64H171.764V1.774H162.916V3.986H171.904V5.12H167.326V6.408ZM161.404 9.894V8.746H171.778V12.47H170.378V9.894H161.404ZM184.321 0.499999H185.637V12.456H184.321V0.499999ZM181.227 5.05V0.569999H182.543V12.246H181.227V6.352H179.337V5.05H181.227ZM177.965 2.194C177.951 3.538 177.881 4.742 177.755 5.806L180.667 10.93L179.533 11.574L177.405 7.71C176.817 10.132 175.767 11.476 174.241 11.742V10.384C175.823 9.95 176.607 6.786 176.635 2.194H174.437V0.933999H180.065V2.194H177.965ZM197.382 12.456V0.499999H198.782V12.456H197.382ZM191.74 11.896C189.612 11.896 188.114 10.132 188.114 6.338C188.114 2.544 189.612 0.78 191.74 0.78C193.854 0.78 195.352 2.544 195.352 6.338C195.352 10.132 193.854 11.896 191.74 11.896ZM191.74 10.622C192.986 10.622 193.966 9.376 193.966 6.338C193.966 3.314 192.986 2.054 191.74 2.054C190.466 2.054 189.5 3.314 189.5 6.338C189.5 9.376 190.466 10.622 191.74 10.622ZM210.947 0.499999H212.333V12.456H210.947V8.802H208.917V7.5H210.947V4.742H208.917V3.44H210.947V0.499999ZM201.707 11.742V0.933999H208.259V11.742H201.707ZM203.079 2.222V10.454H206.887V2.222H203.079ZM216.391 10.412L215.691 13.576H214.543L214.991 10.412H216.391ZM8.848 15.634V16.768H0.728V15.634H4.088V14.29H5.488V15.634H8.848ZM11.592 17.776H13.272V19.106H11.592V23.46H10.206V14.5H11.592V17.776ZM4.788 22.34C2.8 22.34 1.246 21.458 1.246 19.89C1.246 18.322 2.8 17.44 4.788 17.44C6.776 17.44 8.316 18.322 8.316 19.89C8.316 21.458 6.776 22.34 4.788 22.34ZM4.788 18.504C3.444 18.504 2.59 19.092 2.59 19.89C2.59 20.702 3.444 21.276 4.788 21.276C6.132 21.276 6.986 20.702 6.986 19.89C6.986 19.092 6.132 18.504 4.788 18.504ZM2.996 23.026V25.07H11.914V26.302H1.596V23.026H2.996ZM28.3526 14.5H29.6546V26.456H28.3526V14.5ZM25.4126 17.496V14.57H26.7146V26.246H25.4126V22.55H22.5846C21.7306 24.552 20.2466 25.7 18.4266 25.714V24.412C20.6526 24.342 22.0246 21.92 22.0246 18.224V16.194H18.4266V14.934H23.3686V17.496H25.4126ZM23.0046 21.262H25.4126V18.784H23.3546C23.3126 19.68 23.2006 20.52 23.0046 21.262ZM39.1734 16.754H41.4974V14.5H42.8834V21.22H41.4974V17.958H39.1734V16.754ZM35.8414 18.504C35.0154 19.806 33.6294 20.702 31.8654 20.87V19.624C33.8394 19.358 35.0714 17.944 35.2394 15.998H32.0194V14.808H39.6494V15.998H36.6254C36.5974 16.488 36.4994 16.95 36.3594 17.398L40.0414 19.722L39.3554 20.758L35.8414 18.504ZM37.8154 21.612C40.7134 21.612 42.9814 22.284 42.9814 24.034C42.9814 25.784 40.7134 26.456 37.8154 26.456C34.9174 26.456 32.6494 25.784 32.6494 24.034C32.6494 22.284 34.9174 21.612 37.8154 21.612ZM37.8154 25.322C39.8734 25.322 41.5114 24.916 41.5114 24.034C41.5114 23.152 39.8734 22.746 37.8154 22.746C35.7574 22.746 34.1194 23.152 34.1194 24.034C34.1194 24.916 35.7574 25.322 37.8154 25.322ZM51.0582 22.34C47.7962 22.34 45.6822 20.842 45.6822 18.546C45.6822 16.25 47.7962 14.752 51.0582 14.752C54.3202 14.752 56.4342 16.25 56.4342 18.546C56.4342 20.842 54.3202 22.34 51.0582 22.34ZM51.0582 21.08C53.4102 21.08 54.9782 20.058 54.9782 18.546C54.9782 17.034 53.4102 16.012 51.0582 16.012C48.7062 16.012 47.1382 17.034 47.1382 18.546C47.1382 20.058 48.7062 21.08 51.0582 21.08ZM45.0942 25.882V24.58H57.0362V25.882H45.0942ZM65.211 24.608H70.503V25.882H58.561V24.608H63.797V22.354H59.359V18.042H68.347V16.166H59.359V14.934H69.719V19.232H60.745V21.122H69.901V22.354H65.211V24.608ZM80.5996 26.358C79.1436 26.358 78.1636 25.658 77.7576 24.972V29.564H76.3156V18.154H77.7576V19.344C78.1636 18.658 79.1436 17.958 80.5996 17.958C82.8676 17.958 84.5616 19.764 84.5616 22.158C84.5616 24.552 82.8676 26.358 80.5996 26.358ZM80.4736 25.084C82.0836 25.084 83.1476 23.824 83.1476 22.158C83.1476 20.492 82.0836 19.232 80.4736 19.232C78.8496 19.232 77.7296 20.492 77.7296 22.158C77.7296 23.824 78.8496 25.084 80.4736 25.084ZM93.8675 23.446C93.4335 25.182 91.9635 26.358 90.1015 26.358C87.7215 26.358 85.9855 24.566 85.9855 22.158C85.9855 19.75 87.7075 17.958 90.0735 17.958C91.9635 17.958 93.4475 19.176 93.8395 20.842H92.3695C92.0475 19.89 91.2075 19.232 90.0735 19.232C88.4775 19.232 87.3995 20.492 87.3995 22.158C87.3995 23.824 88.4775 25.084 90.0735 25.084C91.2075 25.084 92.0755 24.412 92.3975 23.446H93.8675ZM107.772 19.232V20.562H106.12V26.456H104.734V14.5H106.12V19.232H107.772ZM99.876 22.102V24.44C101.458 24.44 102.9 24.3 103.74 23.936V25.238C102.886 25.588 101.472 25.742 99.834 25.742H95.27V24.44H98.504V22.102C96.754 21.808 95.564 20.394 95.564 18.462C95.564 16.278 97.076 14.752 99.19 14.752C101.29 14.752 102.844 16.278 102.844 18.462C102.844 20.394 101.626 21.808 99.876 22.102ZM96.922 18.462C96.922 19.848 97.79 20.912 99.19 20.912C100.576 20.912 101.486 19.848 101.486 18.462C101.486 17.062 100.576 15.998 99.19 15.998C97.79 15.998 96.922 17.062 96.922 18.462ZM119.325 24.58H124.603V25.882H112.661V24.58H117.911V21.71H113.445V14.934H123.805V21.71H119.325V24.58ZM114.831 16.236V20.422H122.419V16.236H114.831ZM138.629 19.344V20.674H136.949V26.456H135.563V14.5H136.949V19.344H138.629ZM131.965 18.966V14.85H133.337V25.742H126.687V14.85H128.059V18.966H131.965ZM128.059 24.468H131.965V20.24H128.059V24.468ZM149.366 20.352V14.5H150.752V20.352H149.366ZM143.528 20.198C141.316 20.198 139.818 19.036 139.818 17.412C139.818 15.788 141.316 14.626 143.528 14.626C145.74 14.626 147.224 15.788 147.224 17.412C147.224 19.036 145.74 20.198 143.528 20.198ZM143.528 19.078C144.9 19.078 145.852 18.42 145.852 17.412C145.852 16.404 144.9 15.746 143.528 15.746C142.156 15.746 141.19 16.404 141.19 17.412C141.19 18.42 142.156 19.078 143.528 19.078ZM140.77 26.302V23.138H149.38V22.102H140.742V21.01H150.752V24.174H142.142V25.21H151.046V26.302H140.77ZM163.649 24.58H168.927V25.882H156.985V24.58H162.235V21.71H157.769V14.934H168.129V21.71H163.649V24.58ZM159.155 16.236V20.422H166.743V16.236H159.155ZM181.764 19.344V20.618H171.278V14.794H181.624V16.068H172.692V19.344H181.764ZM182.394 22.018V23.334H177.116V26.736H175.702V23.334H170.452V22.018H182.394ZM200.344 19.344V20.674H198.664V26.456H197.278V14.5H198.664V19.344H200.344ZM193.008 14.85C192.994 16.712 192.84 18.378 192.532 19.82L196.298 24.916L195.178 25.714L192.098 21.444C191.244 24.048 189.802 25.602 187.94 25.742V24.342C190.334 23.964 191.58 19.82 191.594 14.794L193.008 14.85ZM210.619 20.1H213.251V21.22H201.309V20.1H203.927V18.602C202.751 18.252 201.995 17.636 201.995 16.712C201.995 15.088 204.375 14.43 207.273 14.43C210.171 14.43 212.551 15.088 212.551 16.712C212.551 17.636 211.795 18.252 210.619 18.602V20.1ZM203.465 16.712C203.465 17.552 205.187 17.916 207.273 17.916C209.359 17.916 211.081 17.552 211.081 16.712C211.081 15.886 209.359 15.522 207.273 15.522C205.187 15.522 203.465 15.886 203.465 16.712ZM205.299 18.896V20.1H209.247V18.896C208.631 18.966 207.973 19.008 207.273 19.008C206.573 19.008 205.915 18.966 205.299 18.896ZM207.273 22.144C210.129 22.144 212.523 22.662 212.523 24.3C212.523 25.938 210.129 26.484 207.273 26.484C204.417 26.484 202.023 25.938 202.023 24.3C202.023 22.662 204.417 22.144 207.273 22.144ZM207.273 25.392C209.205 25.392 211.067 25.126 211.067 24.3C211.067 23.488 209.205 23.236 207.273 23.236C205.341 23.236 203.493 23.488 203.493 24.3C203.493 25.126 205.341 25.392 207.273 25.392ZM224.548 26.456V14.5H225.948V26.456H224.548ZM218.906 25.896C216.778 25.896 215.28 24.132 215.28 20.338C215.28 16.544 216.778 14.78 218.906 14.78C221.02 14.78 222.518 16.544 222.518 20.338C222.518 24.132 221.02 25.896 218.906 25.896ZM218.906 24.622C220.152 24.622 221.132 23.376 221.132 20.338C221.132 17.314 220.152 16.054 218.906 16.054C217.632 16.054 216.666 17.314 216.666 20.338C216.666 23.376 217.632 24.622 218.906 24.622ZM244.668 19.344V20.674H242.988V26.456H241.602V14.5H242.988V19.344H244.668ZM232.6 16.208V14.934H239.11V17.818C239.11 22.578 236.66 25.714 232.6 25.714V24.398C235.848 24.384 237.696 21.85 237.696 17.846V16.208H232.6ZM246.487 18.714V14.5H247.887V17.594H256.861V18.714H246.487ZM245.633 21.024V19.904H257.575V21.024H245.633ZM251.597 26.484C248.741 26.484 246.347 25.924 246.347 24.286C246.347 22.648 248.741 22.102 251.597 22.102C254.453 22.102 256.847 22.648 256.847 24.286C256.847 25.924 254.453 26.484 251.597 26.484ZM251.597 25.392C253.529 25.392 255.391 25.112 255.391 24.286C255.391 23.474 253.529 23.194 251.597 23.194C249.665 23.194 247.803 23.474 247.803 24.286C247.803 25.112 249.665 25.392 251.597 25.392ZM267.178 15.494V16.558H259.058V15.494H262.418V14.29H263.818V15.494H267.178ZM271.602 17.006V18.294H269.922V21.22H268.536V14.5H269.922V17.006H271.602ZM263.118 21.374C261.13 21.374 259.604 20.59 259.604 19.274C259.604 17.972 261.13 17.174 263.118 17.174C265.092 17.174 266.618 17.972 266.618 19.274C266.618 20.59 265.092 21.374 263.118 21.374ZM263.118 18.182C261.774 18.182 260.934 18.658 260.934 19.274C260.934 19.89 261.774 20.366 263.118 20.366C264.448 20.366 265.302 19.89 265.302 19.274C265.302 18.658 264.448 18.182 263.118 18.182ZM268.578 22.942V21.864H269.922V26.302H259.926V21.864H261.27V22.942H268.578ZM261.27 25.21H268.578V24.006H261.27V25.21ZM282.339 26.47V14.5H283.725V26.456L282.339 26.47ZM273.253 25.742V14.864H274.667V24.468H278.139C279.273 24.468 280.505 24.23 281.233 23.88V25.154C280.505 25.518 279.287 25.742 278.139 25.742H273.253ZM298.536 19.344V20.674H296.856V26.456H295.47V14.5H296.856V19.344H298.536ZM288.008 24.482H291.34C292.474 24.482 293.706 24.258 294.434 23.908V25.168C293.706 25.532 292.418 25.742 291.27 25.742H286.594V14.934H293.496V16.194H288.008V24.482Z" fill="white"/>
</svg>
